<mxfile host="Electron" agent="Mozilla/5.0 (Windows NT 10.0; Win64; x64) AppleWebKit/537.36 (KHTML, like Gecko) draw.io/26.2.2 Chrome/134.0.6998.178 Electron/35.1.2 Safari/537.36" version="26.2.2" pages="9">
  <diagram id="opj-drgV3lybiYYwfv0Y" name="Page-1">
    <mxGraphModel dx="1072" dy="952" grid="1" gridSize="10" guides="1" tooltips="1" connect="1" arrows="1" fold="1" page="1" pageScale="1" pageWidth="850" pageHeight="1100" math="0" shadow="0">
      <root>
        <mxCell id="0" />
        <mxCell id="1" parent="0" />
        <mxCell id="AN8lOeEaPC3hR9UYKgBM-24" value="" style="group" parent="1" vertex="1" connectable="0">
          <mxGeometry x="248" y="80" width="235" height="110" as="geometry" />
        </mxCell>
        <mxCell id="AN8lOeEaPC3hR9UYKgBM-3" value="" style="rounded=0;whiteSpace=wrap;html=1;" parent="AN8lOeEaPC3hR9UYKgBM-24" vertex="1">
          <mxGeometry x="100" width="135" height="80" as="geometry" />
        </mxCell>
        <mxCell id="AN8lOeEaPC3hR9UYKgBM-4" value="" style="group" parent="AN8lOeEaPC3hR9UYKgBM-24" vertex="1" connectable="0">
          <mxGeometry x="105" y="10" width="110" height="30" as="geometry" />
        </mxCell>
        <mxCell id="AN8lOeEaPC3hR9UYKgBM-5" value="3" style="rounded=0;whiteSpace=wrap;html=1;" parent="AN8lOeEaPC3hR9UYKgBM-4" vertex="1">
          <mxGeometry x="40" width="70" height="30" as="geometry" />
        </mxCell>
        <mxCell id="AN8lOeEaPC3hR9UYKgBM-6" value="m_x" style="text;html=1;strokeColor=none;fillColor=none;align=right;verticalAlign=middle;whiteSpace=wrap;rounded=0;" parent="AN8lOeEaPC3hR9UYKgBM-4" vertex="1">
          <mxGeometry x="-22" y="5" width="60" height="20" as="geometry" />
        </mxCell>
        <mxCell id="AN8lOeEaPC3hR9UYKgBM-22" value="p1" style="text;html=1;strokeColor=none;fillColor=none;align=right;verticalAlign=middle;whiteSpace=wrap;rounded=0;" parent="AN8lOeEaPC3hR9UYKgBM-4" vertex="1">
          <mxGeometry x="-65" y="-10" width="60" height="20" as="geometry" />
        </mxCell>
        <mxCell id="AN8lOeEaPC3hR9UYKgBM-14" value="" style="group" parent="AN8lOeEaPC3hR9UYKgBM-24" vertex="1" connectable="0">
          <mxGeometry x="105" y="40" width="110" height="30" as="geometry" />
        </mxCell>
        <mxCell id="AN8lOeEaPC3hR9UYKgBM-15" value="4" style="rounded=0;whiteSpace=wrap;html=1;" parent="AN8lOeEaPC3hR9UYKgBM-14" vertex="1">
          <mxGeometry x="40" width="70" height="30" as="geometry" />
        </mxCell>
        <mxCell id="AN8lOeEaPC3hR9UYKgBM-16" value="m_y" style="text;html=1;strokeColor=none;fillColor=none;align=right;verticalAlign=middle;whiteSpace=wrap;rounded=0;" parent="AN8lOeEaPC3hR9UYKgBM-14" vertex="1">
          <mxGeometry x="-22" y="5" width="60" height="20" as="geometry" />
        </mxCell>
        <mxCell id="CP6XdCr3udeP17sVlXjr-1" value="" style="rounded=0;whiteSpace=wrap;html=1;" parent="1" vertex="1">
          <mxGeometry x="348" y="180" width="135" height="80" as="geometry" />
        </mxCell>
        <mxCell id="CP6XdCr3udeP17sVlXjr-2" value="" style="group" parent="1" vertex="1" connectable="0">
          <mxGeometry x="353" y="190" width="110" height="30" as="geometry" />
        </mxCell>
        <mxCell id="CP6XdCr3udeP17sVlXjr-3" value="3" style="rounded=0;whiteSpace=wrap;html=1;" parent="CP6XdCr3udeP17sVlXjr-2" vertex="1">
          <mxGeometry x="40" width="70" height="30" as="geometry" />
        </mxCell>
        <mxCell id="CP6XdCr3udeP17sVlXjr-4" value="m_x" style="text;html=1;strokeColor=none;fillColor=none;align=right;verticalAlign=middle;whiteSpace=wrap;rounded=0;" parent="CP6XdCr3udeP17sVlXjr-2" vertex="1">
          <mxGeometry x="-22" y="5" width="60" height="20" as="geometry" />
        </mxCell>
        <mxCell id="CP6XdCr3udeP17sVlXjr-5" value="p2" style="text;html=1;strokeColor=none;fillColor=none;align=right;verticalAlign=middle;whiteSpace=wrap;rounded=0;" parent="CP6XdCr3udeP17sVlXjr-2" vertex="1">
          <mxGeometry x="-65" y="-10" width="60" height="20" as="geometry" />
        </mxCell>
        <mxCell id="CP6XdCr3udeP17sVlXjr-6" value="" style="group" parent="1" vertex="1" connectable="0">
          <mxGeometry x="353" y="220" width="110" height="30" as="geometry" />
        </mxCell>
        <mxCell id="CP6XdCr3udeP17sVlXjr-7" value="4" style="rounded=0;whiteSpace=wrap;html=1;" parent="CP6XdCr3udeP17sVlXjr-6" vertex="1">
          <mxGeometry x="40" width="70" height="30" as="geometry" />
        </mxCell>
        <mxCell id="CP6XdCr3udeP17sVlXjr-8" value="m_y" style="text;html=1;strokeColor=none;fillColor=none;align=right;verticalAlign=middle;whiteSpace=wrap;rounded=0;" parent="CP6XdCr3udeP17sVlXjr-6" vertex="1">
          <mxGeometry x="-22" y="5" width="60" height="20" as="geometry" />
        </mxCell>
        <mxCell id="CP6XdCr3udeP17sVlXjr-9" value="" style="rounded=0;whiteSpace=wrap;html=1;" parent="1" vertex="1">
          <mxGeometry x="345" y="360" width="135" height="80" as="geometry" />
        </mxCell>
        <mxCell id="CP6XdCr3udeP17sVlXjr-10" value="" style="group" parent="1" vertex="1" connectable="0">
          <mxGeometry x="350" y="370" width="110" height="30" as="geometry" />
        </mxCell>
        <mxCell id="CP6XdCr3udeP17sVlXjr-11" value="0" style="rounded=0;whiteSpace=wrap;html=1;" parent="CP6XdCr3udeP17sVlXjr-10" vertex="1">
          <mxGeometry x="40" width="70" height="30" as="geometry" />
        </mxCell>
        <mxCell id="CP6XdCr3udeP17sVlXjr-12" value="m_x" style="text;html=1;strokeColor=none;fillColor=none;align=right;verticalAlign=middle;whiteSpace=wrap;rounded=0;" parent="CP6XdCr3udeP17sVlXjr-10" vertex="1">
          <mxGeometry x="-22" y="5" width="60" height="20" as="geometry" />
        </mxCell>
        <mxCell id="CP6XdCr3udeP17sVlXjr-13" value="p1" style="text;html=1;strokeColor=none;fillColor=none;align=right;verticalAlign=middle;whiteSpace=wrap;rounded=0;" parent="CP6XdCr3udeP17sVlXjr-10" vertex="1">
          <mxGeometry x="-65" y="-10" width="60" height="20" as="geometry" />
        </mxCell>
        <mxCell id="CP6XdCr3udeP17sVlXjr-14" value="" style="group" parent="1" vertex="1" connectable="0">
          <mxGeometry x="350" y="400" width="110" height="30" as="geometry" />
        </mxCell>
        <mxCell id="CP6XdCr3udeP17sVlXjr-15" value="0" style="rounded=0;whiteSpace=wrap;html=1;" parent="CP6XdCr3udeP17sVlXjr-14" vertex="1">
          <mxGeometry x="40" width="70" height="30" as="geometry" />
        </mxCell>
        <mxCell id="CP6XdCr3udeP17sVlXjr-16" value="m_y" style="text;html=1;strokeColor=none;fillColor=none;align=right;verticalAlign=middle;whiteSpace=wrap;rounded=0;" parent="CP6XdCr3udeP17sVlXjr-14" vertex="1">
          <mxGeometry x="-22" y="5" width="60" height="20" as="geometry" />
        </mxCell>
      </root>
    </mxGraphModel>
  </diagram>
  <diagram id="89L43GkFxovWfiTR1yN-" name="Page-2">
    <mxGraphModel dx="1072" dy="952" grid="1" gridSize="10" guides="1" tooltips="1" connect="1" arrows="1" fold="1" page="1" pageScale="1" pageWidth="850" pageHeight="1100" math="0" shadow="0">
      <root>
        <mxCell id="UZRYZXfFxwNRGI_YSuTB-0" />
        <mxCell id="UZRYZXfFxwNRGI_YSuTB-1" parent="UZRYZXfFxwNRGI_YSuTB-0" />
        <mxCell id="7LQwqWcmf4sO_3C_LHzw-0" value="" style="rounded=0;whiteSpace=wrap;html=1;" parent="UZRYZXfFxwNRGI_YSuTB-1" vertex="1">
          <mxGeometry x="134.5" y="80" width="435.5" height="124" as="geometry" />
        </mxCell>
        <mxCell id="7LQwqWcmf4sO_3C_LHzw-1" value="" style="rounded=0;whiteSpace=wrap;html=1;" parent="UZRYZXfFxwNRGI_YSuTB-1" vertex="1">
          <mxGeometry x="144.5" y="90" width="207" height="90" as="geometry" />
        </mxCell>
        <mxCell id="7LQwqWcmf4sO_3C_LHzw-2" value="" style="rounded=0;whiteSpace=wrap;html=1;align=left;" parent="UZRYZXfFxwNRGI_YSuTB-1" vertex="1">
          <mxGeometry x="196.5" y="120" width="145" height="50" as="geometry" />
        </mxCell>
        <mxCell id="7LQwqWcmf4sO_3C_LHzw-3" value="students" style="text;html=1;strokeColor=none;fillColor=none;align=right;verticalAlign=middle;whiteSpace=wrap;rounded=0;" parent="UZRYZXfFxwNRGI_YSuTB-1" vertex="1">
          <mxGeometry x="70" y="80" width="60" height="20" as="geometry" />
        </mxCell>
        <mxCell id="7LQwqWcmf4sO_3C_LHzw-4" value="Beth Jones" style="rounded=0;whiteSpace=wrap;html=1;align=left;" parent="UZRYZXfFxwNRGI_YSuTB-1" vertex="1">
          <mxGeometry x="196.5" y="100" width="145" height="20" as="geometry" />
        </mxCell>
        <mxCell id="7LQwqWcmf4sO_3C_LHzw-5" value="name" style="text;html=1;strokeColor=none;fillColor=none;align=right;verticalAlign=middle;whiteSpace=wrap;rounded=0;" parent="UZRYZXfFxwNRGI_YSuTB-1" vertex="1">
          <mxGeometry x="134.5" y="100" width="60" height="20" as="geometry" />
        </mxCell>
        <mxCell id="7LQwqWcmf4sO_3C_LHzw-6" value="exams" style="text;html=1;strokeColor=none;fillColor=none;align=right;verticalAlign=middle;whiteSpace=wrap;rounded=0;" parent="UZRYZXfFxwNRGI_YSuTB-1" vertex="1">
          <mxGeometry x="155.5" y="140" width="40" height="20" as="geometry" />
        </mxCell>
        <mxCell id="7LQwqWcmf4sO_3C_LHzw-7" value="" style="group" parent="UZRYZXfFxwNRGI_YSuTB-1" vertex="1" connectable="0">
          <mxGeometry x="204.5" y="130" width="40" height="40" as="geometry" />
        </mxCell>
        <mxCell id="7LQwqWcmf4sO_3C_LHzw-8" value="" style="group;fillColor=none;" parent="7LQwqWcmf4sO_3C_LHzw-7" vertex="1" connectable="0">
          <mxGeometry width="40" height="40" as="geometry" />
        </mxCell>
        <mxCell id="7LQwqWcmf4sO_3C_LHzw-9" value="" style="group;fillColor=none;" parent="7LQwqWcmf4sO_3C_LHzw-8" vertex="1" connectable="0">
          <mxGeometry width="40" height="40" as="geometry" />
        </mxCell>
        <mxCell id="7LQwqWcmf4sO_3C_LHzw-10" value="84.2" style="rounded=0;whiteSpace=wrap;html=1;fillColor=#f8cecc;strokeColor=#b85450;" parent="7LQwqWcmf4sO_3C_LHzw-9" vertex="1">
          <mxGeometry width="40" height="20" as="geometry" />
        </mxCell>
        <mxCell id="7LQwqWcmf4sO_3C_LHzw-11" value="0" style="text;html=1;strokeColor=none;fillColor=none;align=center;verticalAlign=middle;whiteSpace=wrap;rounded=0;fontStyle=2;fontColor=#808080;" parent="7LQwqWcmf4sO_3C_LHzw-9" vertex="1">
          <mxGeometry y="20" width="40" height="20" as="geometry" />
        </mxCell>
        <mxCell id="7LQwqWcmf4sO_3C_LHzw-12" value="" style="group" parent="UZRYZXfFxwNRGI_YSuTB-1" vertex="1" connectable="0">
          <mxGeometry x="244.5" y="130" width="40" height="40" as="geometry" />
        </mxCell>
        <mxCell id="7LQwqWcmf4sO_3C_LHzw-13" value="" style="group;fillColor=none;" parent="7LQwqWcmf4sO_3C_LHzw-12" vertex="1" connectable="0">
          <mxGeometry width="40" height="40" as="geometry" />
        </mxCell>
        <mxCell id="7LQwqWcmf4sO_3C_LHzw-14" value="" style="group;fillColor=none;" parent="7LQwqWcmf4sO_3C_LHzw-13" vertex="1" connectable="0">
          <mxGeometry width="40" height="40" as="geometry" />
        </mxCell>
        <mxCell id="7LQwqWcmf4sO_3C_LHzw-15" value="94.3" style="rounded=0;whiteSpace=wrap;html=1;fillColor=none;" parent="7LQwqWcmf4sO_3C_LHzw-14" vertex="1">
          <mxGeometry width="40" height="20" as="geometry" />
        </mxCell>
        <mxCell id="7LQwqWcmf4sO_3C_LHzw-16" value="1" style="text;html=1;strokeColor=none;fillColor=none;align=center;verticalAlign=middle;whiteSpace=wrap;rounded=0;fontStyle=2;fontColor=#808080;" parent="7LQwqWcmf4sO_3C_LHzw-14" vertex="1">
          <mxGeometry y="20" width="40" height="20" as="geometry" />
        </mxCell>
        <mxCell id="7LQwqWcmf4sO_3C_LHzw-17" value="" style="group" parent="UZRYZXfFxwNRGI_YSuTB-1" vertex="1" connectable="0">
          <mxGeometry x="284.5" y="130" width="40" height="40" as="geometry" />
        </mxCell>
        <mxCell id="7LQwqWcmf4sO_3C_LHzw-18" value="" style="group;fillColor=none;" parent="7LQwqWcmf4sO_3C_LHzw-17" vertex="1" connectable="0">
          <mxGeometry width="40" height="40" as="geometry" />
        </mxCell>
        <mxCell id="7LQwqWcmf4sO_3C_LHzw-19" value="" style="group;fillColor=none;" parent="7LQwqWcmf4sO_3C_LHzw-18" vertex="1" connectable="0">
          <mxGeometry width="40" height="40" as="geometry" />
        </mxCell>
        <mxCell id="7LQwqWcmf4sO_3C_LHzw-20" value="96.7" style="rounded=0;whiteSpace=wrap;html=1;fillColor=none;" parent="7LQwqWcmf4sO_3C_LHzw-19" vertex="1">
          <mxGeometry width="40" height="20" as="geometry" />
        </mxCell>
        <mxCell id="7LQwqWcmf4sO_3C_LHzw-21" value="2" style="text;html=1;strokeColor=none;fillColor=none;align=center;verticalAlign=middle;whiteSpace=wrap;rounded=0;fontStyle=2;fontColor=#808080;" parent="7LQwqWcmf4sO_3C_LHzw-19" vertex="1">
          <mxGeometry y="20" width="40" height="20" as="geometry" />
        </mxCell>
        <mxCell id="7LQwqWcmf4sO_3C_LHzw-22" value="" style="rounded=0;whiteSpace=wrap;html=1;" parent="UZRYZXfFxwNRGI_YSuTB-1" vertex="1">
          <mxGeometry x="351.5" y="90" width="207" height="90" as="geometry" />
        </mxCell>
        <mxCell id="7LQwqWcmf4sO_3C_LHzw-23" value="" style="rounded=0;whiteSpace=wrap;html=1;align=left;" parent="UZRYZXfFxwNRGI_YSuTB-1" vertex="1">
          <mxGeometry x="403.5" y="120" width="145" height="50" as="geometry" />
        </mxCell>
        <mxCell id="7LQwqWcmf4sO_3C_LHzw-24" value="John Smith" style="rounded=0;whiteSpace=wrap;html=1;align=left;" parent="UZRYZXfFxwNRGI_YSuTB-1" vertex="1">
          <mxGeometry x="403.5" y="100" width="145" height="20" as="geometry" />
        </mxCell>
        <mxCell id="7LQwqWcmf4sO_3C_LHzw-25" value="name" style="text;html=1;strokeColor=none;fillColor=none;align=right;verticalAlign=middle;whiteSpace=wrap;rounded=0;" parent="UZRYZXfFxwNRGI_YSuTB-1" vertex="1">
          <mxGeometry x="342.5" y="100" width="60" height="20" as="geometry" />
        </mxCell>
        <mxCell id="7LQwqWcmf4sO_3C_LHzw-26" value="exams" style="text;html=1;strokeColor=none;fillColor=none;align=right;verticalAlign=middle;whiteSpace=wrap;rounded=0;" parent="UZRYZXfFxwNRGI_YSuTB-1" vertex="1">
          <mxGeometry x="362.5" y="140" width="40" height="20" as="geometry" />
        </mxCell>
        <mxCell id="7LQwqWcmf4sO_3C_LHzw-27" value="" style="group" parent="UZRYZXfFxwNRGI_YSuTB-1" vertex="1" connectable="0">
          <mxGeometry x="411.5" y="130" width="40" height="40" as="geometry" />
        </mxCell>
        <mxCell id="7LQwqWcmf4sO_3C_LHzw-28" value="" style="group;fillColor=none;" parent="7LQwqWcmf4sO_3C_LHzw-27" vertex="1" connectable="0">
          <mxGeometry width="40" height="40" as="geometry" />
        </mxCell>
        <mxCell id="7LQwqWcmf4sO_3C_LHzw-29" value="" style="group;fillColor=none;" parent="7LQwqWcmf4sO_3C_LHzw-28" vertex="1" connectable="0">
          <mxGeometry width="40" height="40" as="geometry" />
        </mxCell>
        <mxCell id="7LQwqWcmf4sO_3C_LHzw-30" value="78.2" style="rounded=0;whiteSpace=wrap;html=1;fillColor=none;" parent="7LQwqWcmf4sO_3C_LHzw-29" vertex="1">
          <mxGeometry width="40" height="20" as="geometry" />
        </mxCell>
        <mxCell id="7LQwqWcmf4sO_3C_LHzw-31" value="0" style="text;html=1;strokeColor=none;fillColor=none;align=center;verticalAlign=middle;whiteSpace=wrap;rounded=0;fontStyle=2;fontColor=#808080;" parent="7LQwqWcmf4sO_3C_LHzw-29" vertex="1">
          <mxGeometry y="20" width="40" height="20" as="geometry" />
        </mxCell>
        <mxCell id="7LQwqWcmf4sO_3C_LHzw-32" value="" style="group" parent="UZRYZXfFxwNRGI_YSuTB-1" vertex="1" connectable="0">
          <mxGeometry x="451.5" y="130" width="40" height="40" as="geometry" />
        </mxCell>
        <mxCell id="7LQwqWcmf4sO_3C_LHzw-33" value="" style="group;fillColor=none;" parent="7LQwqWcmf4sO_3C_LHzw-32" vertex="1" connectable="0">
          <mxGeometry width="40" height="40" as="geometry" />
        </mxCell>
        <mxCell id="7LQwqWcmf4sO_3C_LHzw-34" value="" style="group;fillColor=none;" parent="7LQwqWcmf4sO_3C_LHzw-33" vertex="1" connectable="0">
          <mxGeometry width="40" height="40" as="geometry" />
        </mxCell>
        <mxCell id="7LQwqWcmf4sO_3C_LHzw-35" value="88.3" style="rounded=0;whiteSpace=wrap;html=1;fillColor=none;" parent="7LQwqWcmf4sO_3C_LHzw-34" vertex="1">
          <mxGeometry width="40" height="20" as="geometry" />
        </mxCell>
        <mxCell id="7LQwqWcmf4sO_3C_LHzw-36" value="1" style="text;html=1;strokeColor=none;fillColor=none;align=center;verticalAlign=middle;whiteSpace=wrap;rounded=0;fontStyle=2;fontColor=#808080;" parent="7LQwqWcmf4sO_3C_LHzw-34" vertex="1">
          <mxGeometry y="20" width="40" height="20" as="geometry" />
        </mxCell>
        <mxCell id="7LQwqWcmf4sO_3C_LHzw-37" value="" style="group" parent="UZRYZXfFxwNRGI_YSuTB-1" vertex="1" connectable="0">
          <mxGeometry x="491.5" y="130" width="40" height="40" as="geometry" />
        </mxCell>
        <mxCell id="7LQwqWcmf4sO_3C_LHzw-38" value="" style="group;fillColor=none;" parent="7LQwqWcmf4sO_3C_LHzw-37" vertex="1" connectable="0">
          <mxGeometry width="40" height="40" as="geometry" />
        </mxCell>
        <mxCell id="7LQwqWcmf4sO_3C_LHzw-39" value="" style="group;fillColor=none;" parent="7LQwqWcmf4sO_3C_LHzw-38" vertex="1" connectable="0">
          <mxGeometry width="40" height="40" as="geometry" />
        </mxCell>
        <mxCell id="7LQwqWcmf4sO_3C_LHzw-40" value="92.7" style="rounded=0;whiteSpace=wrap;html=1;fillColor=none;" parent="7LQwqWcmf4sO_3C_LHzw-39" vertex="1">
          <mxGeometry width="40" height="20" as="geometry" />
        </mxCell>
        <mxCell id="7LQwqWcmf4sO_3C_LHzw-41" value="2" style="text;html=1;strokeColor=none;fillColor=none;align=center;verticalAlign=middle;whiteSpace=wrap;rounded=0;fontStyle=2;fontColor=#808080;" parent="7LQwqWcmf4sO_3C_LHzw-39" vertex="1">
          <mxGeometry y="20" width="40" height="20" as="geometry" />
        </mxCell>
        <mxCell id="7LQwqWcmf4sO_3C_LHzw-42" value="0" style="text;html=1;strokeColor=none;fillColor=none;align=center;verticalAlign=middle;whiteSpace=wrap;rounded=0;fontStyle=2;fontColor=#808080;" parent="UZRYZXfFxwNRGI_YSuTB-1" vertex="1">
          <mxGeometry x="220" y="180" width="40" height="20" as="geometry" />
        </mxCell>
        <mxCell id="7LQwqWcmf4sO_3C_LHzw-43" value="1" style="text;html=1;strokeColor=none;fillColor=none;align=center;verticalAlign=middle;whiteSpace=wrap;rounded=0;fontStyle=2;fontColor=#808080;" parent="UZRYZXfFxwNRGI_YSuTB-1" vertex="1">
          <mxGeometry x="451.5" y="180" width="40" height="20" as="geometry" />
        </mxCell>
        <mxCell id="7LQwqWcmf4sO_3C_LHzw-44" value="" style="rounded=0;whiteSpace=wrap;html=1;" parent="UZRYZXfFxwNRGI_YSuTB-1" vertex="1">
          <mxGeometry x="142.5" y="230" width="207" height="90" as="geometry" />
        </mxCell>
        <mxCell id="7LQwqWcmf4sO_3C_LHzw-45" value="" style="rounded=0;whiteSpace=wrap;html=1;align=left;" parent="UZRYZXfFxwNRGI_YSuTB-1" vertex="1">
          <mxGeometry x="194.5" y="260" width="145" height="50" as="geometry" />
        </mxCell>
        <mxCell id="7LQwqWcmf4sO_3C_LHzw-46" value="s1" style="text;html=1;strokeColor=none;fillColor=none;align=right;verticalAlign=middle;whiteSpace=wrap;rounded=0;" parent="UZRYZXfFxwNRGI_YSuTB-1" vertex="1">
          <mxGeometry x="78" y="230" width="60" height="20" as="geometry" />
        </mxCell>
        <mxCell id="7LQwqWcmf4sO_3C_LHzw-47" value="Beth Jones" style="rounded=0;whiteSpace=wrap;html=1;align=left;" parent="UZRYZXfFxwNRGI_YSuTB-1" vertex="1">
          <mxGeometry x="194.5" y="240" width="145" height="20" as="geometry" />
        </mxCell>
        <mxCell id="7LQwqWcmf4sO_3C_LHzw-48" value="name" style="text;html=1;strokeColor=none;fillColor=none;align=right;verticalAlign=middle;whiteSpace=wrap;rounded=0;" parent="UZRYZXfFxwNRGI_YSuTB-1" vertex="1">
          <mxGeometry x="132.5" y="240" width="60" height="20" as="geometry" />
        </mxCell>
        <mxCell id="7LQwqWcmf4sO_3C_LHzw-49" value="exams" style="text;html=1;strokeColor=none;fillColor=none;align=right;verticalAlign=middle;whiteSpace=wrap;rounded=0;" parent="UZRYZXfFxwNRGI_YSuTB-1" vertex="1">
          <mxGeometry x="154.5" y="280" width="40" height="20" as="geometry" />
        </mxCell>
        <mxCell id="7LQwqWcmf4sO_3C_LHzw-50" value="" style="group" parent="UZRYZXfFxwNRGI_YSuTB-1" vertex="1" connectable="0">
          <mxGeometry x="202.5" y="270" width="40" height="40" as="geometry" />
        </mxCell>
        <mxCell id="7LQwqWcmf4sO_3C_LHzw-51" value="" style="group;fillColor=none;" parent="7LQwqWcmf4sO_3C_LHzw-50" vertex="1" connectable="0">
          <mxGeometry width="40" height="40" as="geometry" />
        </mxCell>
        <mxCell id="7LQwqWcmf4sO_3C_LHzw-52" value="" style="group;fillColor=none;" parent="7LQwqWcmf4sO_3C_LHzw-51" vertex="1" connectable="0">
          <mxGeometry width="40" height="40" as="geometry" />
        </mxCell>
        <mxCell id="7LQwqWcmf4sO_3C_LHzw-53" value="100.0" style="rounded=0;whiteSpace=wrap;html=1;fillColor=#f8cecc;strokeColor=#b85450;" parent="7LQwqWcmf4sO_3C_LHzw-52" vertex="1">
          <mxGeometry width="40" height="20" as="geometry" />
        </mxCell>
        <mxCell id="7LQwqWcmf4sO_3C_LHzw-54" value="0" style="text;html=1;strokeColor=none;fillColor=none;align=center;verticalAlign=middle;whiteSpace=wrap;rounded=0;fontStyle=2;fontColor=#808080;" parent="7LQwqWcmf4sO_3C_LHzw-52" vertex="1">
          <mxGeometry y="20" width="40" height="20" as="geometry" />
        </mxCell>
        <mxCell id="7LQwqWcmf4sO_3C_LHzw-55" value="" style="group" parent="UZRYZXfFxwNRGI_YSuTB-1" vertex="1" connectable="0">
          <mxGeometry x="242.5" y="270" width="40" height="40" as="geometry" />
        </mxCell>
        <mxCell id="7LQwqWcmf4sO_3C_LHzw-56" value="" style="group;fillColor=none;" parent="7LQwqWcmf4sO_3C_LHzw-55" vertex="1" connectable="0">
          <mxGeometry width="40" height="40" as="geometry" />
        </mxCell>
        <mxCell id="7LQwqWcmf4sO_3C_LHzw-57" value="" style="group;fillColor=none;" parent="7LQwqWcmf4sO_3C_LHzw-56" vertex="1" connectable="0">
          <mxGeometry width="40" height="40" as="geometry" />
        </mxCell>
        <mxCell id="7LQwqWcmf4sO_3C_LHzw-58" value="94.3" style="rounded=0;whiteSpace=wrap;html=1;fillColor=none;" parent="7LQwqWcmf4sO_3C_LHzw-57" vertex="1">
          <mxGeometry width="40" height="20" as="geometry" />
        </mxCell>
        <mxCell id="7LQwqWcmf4sO_3C_LHzw-59" value="1" style="text;html=1;strokeColor=none;fillColor=none;align=center;verticalAlign=middle;whiteSpace=wrap;rounded=0;fontStyle=2;fontColor=#808080;" parent="7LQwqWcmf4sO_3C_LHzw-57" vertex="1">
          <mxGeometry y="20" width="40" height="20" as="geometry" />
        </mxCell>
        <mxCell id="7LQwqWcmf4sO_3C_LHzw-60" value="" style="group" parent="UZRYZXfFxwNRGI_YSuTB-1" vertex="1" connectable="0">
          <mxGeometry x="282.5" y="270" width="40" height="40" as="geometry" />
        </mxCell>
        <mxCell id="7LQwqWcmf4sO_3C_LHzw-61" value="" style="group;fillColor=none;" parent="7LQwqWcmf4sO_3C_LHzw-60" vertex="1" connectable="0">
          <mxGeometry width="40" height="40" as="geometry" />
        </mxCell>
        <mxCell id="7LQwqWcmf4sO_3C_LHzw-62" value="" style="group;fillColor=none;" parent="7LQwqWcmf4sO_3C_LHzw-61" vertex="1" connectable="0">
          <mxGeometry width="40" height="40" as="geometry" />
        </mxCell>
        <mxCell id="7LQwqWcmf4sO_3C_LHzw-63" value="96.7" style="rounded=0;whiteSpace=wrap;html=1;fillColor=none;" parent="7LQwqWcmf4sO_3C_LHzw-62" vertex="1">
          <mxGeometry width="40" height="20" as="geometry" />
        </mxCell>
        <mxCell id="7LQwqWcmf4sO_3C_LHzw-64" value="2" style="text;html=1;strokeColor=none;fillColor=none;align=center;verticalAlign=middle;whiteSpace=wrap;rounded=0;fontStyle=2;fontColor=#808080;" parent="7LQwqWcmf4sO_3C_LHzw-62" vertex="1">
          <mxGeometry y="20" width="40" height="20" as="geometry" />
        </mxCell>
        <mxCell id="7LQwqWcmf4sO_3C_LHzw-65" value="" style="rounded=0;whiteSpace=wrap;html=1;" parent="UZRYZXfFxwNRGI_YSuTB-1" vertex="1">
          <mxGeometry x="134.5" y="390" width="435.5" height="124" as="geometry" />
        </mxCell>
        <mxCell id="7LQwqWcmf4sO_3C_LHzw-66" value="" style="rounded=0;whiteSpace=wrap;html=1;" parent="UZRYZXfFxwNRGI_YSuTB-1" vertex="1">
          <mxGeometry x="144.5" y="400" width="207" height="90" as="geometry" />
        </mxCell>
        <mxCell id="7LQwqWcmf4sO_3C_LHzw-67" value="" style="rounded=0;whiteSpace=wrap;html=1;align=left;" parent="UZRYZXfFxwNRGI_YSuTB-1" vertex="1">
          <mxGeometry x="196.5" y="430" width="145" height="50" as="geometry" />
        </mxCell>
        <mxCell id="7LQwqWcmf4sO_3C_LHzw-68" value="students" style="text;html=1;strokeColor=none;fillColor=none;align=right;verticalAlign=middle;whiteSpace=wrap;rounded=0;" parent="UZRYZXfFxwNRGI_YSuTB-1" vertex="1">
          <mxGeometry x="70" y="390" width="60" height="20" as="geometry" />
        </mxCell>
        <mxCell id="7LQwqWcmf4sO_3C_LHzw-69" value="Beth Jones" style="rounded=0;whiteSpace=wrap;html=1;align=left;" parent="UZRYZXfFxwNRGI_YSuTB-1" vertex="1">
          <mxGeometry x="196.5" y="410" width="145" height="20" as="geometry" />
        </mxCell>
        <mxCell id="7LQwqWcmf4sO_3C_LHzw-70" value="name" style="text;html=1;strokeColor=none;fillColor=none;align=right;verticalAlign=middle;whiteSpace=wrap;rounded=0;" parent="UZRYZXfFxwNRGI_YSuTB-1" vertex="1">
          <mxGeometry x="134.5" y="410" width="60" height="20" as="geometry" />
        </mxCell>
        <mxCell id="7LQwqWcmf4sO_3C_LHzw-71" value="exams" style="text;html=1;strokeColor=none;fillColor=none;align=right;verticalAlign=middle;whiteSpace=wrap;rounded=0;" parent="UZRYZXfFxwNRGI_YSuTB-1" vertex="1">
          <mxGeometry x="155.5" y="450" width="40" height="20" as="geometry" />
        </mxCell>
        <mxCell id="7LQwqWcmf4sO_3C_LHzw-72" value="" style="group" parent="UZRYZXfFxwNRGI_YSuTB-1" vertex="1" connectable="0">
          <mxGeometry x="204.5" y="440" width="40" height="40" as="geometry" />
        </mxCell>
        <mxCell id="7LQwqWcmf4sO_3C_LHzw-73" value="" style="group;fillColor=none;" parent="7LQwqWcmf4sO_3C_LHzw-72" vertex="1" connectable="0">
          <mxGeometry width="40" height="40" as="geometry" />
        </mxCell>
        <mxCell id="7LQwqWcmf4sO_3C_LHzw-74" value="" style="group;fillColor=none;" parent="7LQwqWcmf4sO_3C_LHzw-73" vertex="1" connectable="0">
          <mxGeometry width="40" height="40" as="geometry" />
        </mxCell>
        <mxCell id="7LQwqWcmf4sO_3C_LHzw-75" value="100.0" style="rounded=0;whiteSpace=wrap;html=1;fillColor=#d5e8d4;strokeColor=#82b366;" parent="7LQwqWcmf4sO_3C_LHzw-74" vertex="1">
          <mxGeometry width="40" height="20" as="geometry" />
        </mxCell>
        <mxCell id="7LQwqWcmf4sO_3C_LHzw-76" value="0" style="text;html=1;strokeColor=none;fillColor=none;align=center;verticalAlign=middle;whiteSpace=wrap;rounded=0;fontStyle=2;fontColor=#808080;" parent="7LQwqWcmf4sO_3C_LHzw-74" vertex="1">
          <mxGeometry y="20" width="40" height="20" as="geometry" />
        </mxCell>
        <mxCell id="7LQwqWcmf4sO_3C_LHzw-77" value="" style="group" parent="UZRYZXfFxwNRGI_YSuTB-1" vertex="1" connectable="0">
          <mxGeometry x="244.5" y="440" width="40" height="40" as="geometry" />
        </mxCell>
        <mxCell id="7LQwqWcmf4sO_3C_LHzw-78" value="" style="group;fillColor=none;" parent="7LQwqWcmf4sO_3C_LHzw-77" vertex="1" connectable="0">
          <mxGeometry width="40" height="40" as="geometry" />
        </mxCell>
        <mxCell id="7LQwqWcmf4sO_3C_LHzw-79" value="" style="group;fillColor=none;" parent="7LQwqWcmf4sO_3C_LHzw-78" vertex="1" connectable="0">
          <mxGeometry width="40" height="40" as="geometry" />
        </mxCell>
        <mxCell id="7LQwqWcmf4sO_3C_LHzw-80" value="94.3" style="rounded=0;whiteSpace=wrap;html=1;fillColor=none;" parent="7LQwqWcmf4sO_3C_LHzw-79" vertex="1">
          <mxGeometry width="40" height="20" as="geometry" />
        </mxCell>
        <mxCell id="7LQwqWcmf4sO_3C_LHzw-81" value="1" style="text;html=1;strokeColor=none;fillColor=none;align=center;verticalAlign=middle;whiteSpace=wrap;rounded=0;fontStyle=2;fontColor=#808080;" parent="7LQwqWcmf4sO_3C_LHzw-79" vertex="1">
          <mxGeometry y="20" width="40" height="20" as="geometry" />
        </mxCell>
        <mxCell id="7LQwqWcmf4sO_3C_LHzw-82" value="" style="group" parent="UZRYZXfFxwNRGI_YSuTB-1" vertex="1" connectable="0">
          <mxGeometry x="284.5" y="440" width="40" height="40" as="geometry" />
        </mxCell>
        <mxCell id="7LQwqWcmf4sO_3C_LHzw-83" value="" style="group;fillColor=none;" parent="7LQwqWcmf4sO_3C_LHzw-82" vertex="1" connectable="0">
          <mxGeometry width="40" height="40" as="geometry" />
        </mxCell>
        <mxCell id="7LQwqWcmf4sO_3C_LHzw-84" value="" style="group;fillColor=none;" parent="7LQwqWcmf4sO_3C_LHzw-83" vertex="1" connectable="0">
          <mxGeometry width="40" height="40" as="geometry" />
        </mxCell>
        <mxCell id="7LQwqWcmf4sO_3C_LHzw-85" value="96.7" style="rounded=0;whiteSpace=wrap;html=1;fillColor=none;" parent="7LQwqWcmf4sO_3C_LHzw-84" vertex="1">
          <mxGeometry width="40" height="20" as="geometry" />
        </mxCell>
        <mxCell id="7LQwqWcmf4sO_3C_LHzw-86" value="2" style="text;html=1;strokeColor=none;fillColor=none;align=center;verticalAlign=middle;whiteSpace=wrap;rounded=0;fontStyle=2;fontColor=#808080;" parent="7LQwqWcmf4sO_3C_LHzw-84" vertex="1">
          <mxGeometry y="20" width="40" height="20" as="geometry" />
        </mxCell>
        <mxCell id="7LQwqWcmf4sO_3C_LHzw-87" value="" style="rounded=0;whiteSpace=wrap;html=1;" parent="UZRYZXfFxwNRGI_YSuTB-1" vertex="1">
          <mxGeometry x="351.5" y="400" width="207" height="90" as="geometry" />
        </mxCell>
        <mxCell id="7LQwqWcmf4sO_3C_LHzw-88" value="" style="rounded=0;whiteSpace=wrap;html=1;align=left;" parent="UZRYZXfFxwNRGI_YSuTB-1" vertex="1">
          <mxGeometry x="403.5" y="430" width="145" height="50" as="geometry" />
        </mxCell>
        <mxCell id="7LQwqWcmf4sO_3C_LHzw-89" value="John Smith" style="rounded=0;whiteSpace=wrap;html=1;align=left;" parent="UZRYZXfFxwNRGI_YSuTB-1" vertex="1">
          <mxGeometry x="403.5" y="410" width="145" height="20" as="geometry" />
        </mxCell>
        <mxCell id="7LQwqWcmf4sO_3C_LHzw-90" value="name" style="text;html=1;strokeColor=none;fillColor=none;align=right;verticalAlign=middle;whiteSpace=wrap;rounded=0;" parent="UZRYZXfFxwNRGI_YSuTB-1" vertex="1">
          <mxGeometry x="342.5" y="410" width="60" height="20" as="geometry" />
        </mxCell>
        <mxCell id="7LQwqWcmf4sO_3C_LHzw-91" value="exams" style="text;html=1;strokeColor=none;fillColor=none;align=right;verticalAlign=middle;whiteSpace=wrap;rounded=0;" parent="UZRYZXfFxwNRGI_YSuTB-1" vertex="1">
          <mxGeometry x="362.5" y="450" width="40" height="20" as="geometry" />
        </mxCell>
        <mxCell id="7LQwqWcmf4sO_3C_LHzw-92" value="" style="group" parent="UZRYZXfFxwNRGI_YSuTB-1" vertex="1" connectable="0">
          <mxGeometry x="411.5" y="440" width="40" height="40" as="geometry" />
        </mxCell>
        <mxCell id="7LQwqWcmf4sO_3C_LHzw-93" value="" style="group;fillColor=none;" parent="7LQwqWcmf4sO_3C_LHzw-92" vertex="1" connectable="0">
          <mxGeometry width="40" height="40" as="geometry" />
        </mxCell>
        <mxCell id="7LQwqWcmf4sO_3C_LHzw-94" value="" style="group;fillColor=none;" parent="7LQwqWcmf4sO_3C_LHzw-93" vertex="1" connectable="0">
          <mxGeometry width="40" height="40" as="geometry" />
        </mxCell>
        <mxCell id="7LQwqWcmf4sO_3C_LHzw-95" value="78.2" style="rounded=0;whiteSpace=wrap;html=1;fillColor=none;" parent="7LQwqWcmf4sO_3C_LHzw-94" vertex="1">
          <mxGeometry width="40" height="20" as="geometry" />
        </mxCell>
        <mxCell id="7LQwqWcmf4sO_3C_LHzw-96" value="0" style="text;html=1;strokeColor=none;fillColor=none;align=center;verticalAlign=middle;whiteSpace=wrap;rounded=0;fontStyle=2;fontColor=#808080;" parent="7LQwqWcmf4sO_3C_LHzw-94" vertex="1">
          <mxGeometry y="20" width="40" height="20" as="geometry" />
        </mxCell>
        <mxCell id="7LQwqWcmf4sO_3C_LHzw-97" value="" style="group" parent="UZRYZXfFxwNRGI_YSuTB-1" vertex="1" connectable="0">
          <mxGeometry x="451.5" y="440" width="40" height="40" as="geometry" />
        </mxCell>
        <mxCell id="7LQwqWcmf4sO_3C_LHzw-98" value="" style="group;fillColor=none;" parent="7LQwqWcmf4sO_3C_LHzw-97" vertex="1" connectable="0">
          <mxGeometry width="40" height="40" as="geometry" />
        </mxCell>
        <mxCell id="7LQwqWcmf4sO_3C_LHzw-99" value="" style="group;fillColor=none;" parent="7LQwqWcmf4sO_3C_LHzw-98" vertex="1" connectable="0">
          <mxGeometry width="40" height="40" as="geometry" />
        </mxCell>
        <mxCell id="7LQwqWcmf4sO_3C_LHzw-100" value="88.3" style="rounded=0;whiteSpace=wrap;html=1;fillColor=none;" parent="7LQwqWcmf4sO_3C_LHzw-99" vertex="1">
          <mxGeometry width="40" height="20" as="geometry" />
        </mxCell>
        <mxCell id="7LQwqWcmf4sO_3C_LHzw-101" value="1" style="text;html=1;strokeColor=none;fillColor=none;align=center;verticalAlign=middle;whiteSpace=wrap;rounded=0;fontStyle=2;fontColor=#808080;" parent="7LQwqWcmf4sO_3C_LHzw-99" vertex="1">
          <mxGeometry y="20" width="40" height="20" as="geometry" />
        </mxCell>
        <mxCell id="7LQwqWcmf4sO_3C_LHzw-102" value="" style="group" parent="UZRYZXfFxwNRGI_YSuTB-1" vertex="1" connectable="0">
          <mxGeometry x="491.5" y="440" width="40" height="40" as="geometry" />
        </mxCell>
        <mxCell id="7LQwqWcmf4sO_3C_LHzw-103" value="" style="group;fillColor=none;" parent="7LQwqWcmf4sO_3C_LHzw-102" vertex="1" connectable="0">
          <mxGeometry width="40" height="40" as="geometry" />
        </mxCell>
        <mxCell id="7LQwqWcmf4sO_3C_LHzw-104" value="" style="group;fillColor=none;" parent="7LQwqWcmf4sO_3C_LHzw-103" vertex="1" connectable="0">
          <mxGeometry width="40" height="40" as="geometry" />
        </mxCell>
        <mxCell id="7LQwqWcmf4sO_3C_LHzw-105" value="92.7" style="rounded=0;whiteSpace=wrap;html=1;fillColor=none;" parent="7LQwqWcmf4sO_3C_LHzw-104" vertex="1">
          <mxGeometry width="40" height="20" as="geometry" />
        </mxCell>
        <mxCell id="7LQwqWcmf4sO_3C_LHzw-106" value="2" style="text;html=1;strokeColor=none;fillColor=none;align=center;verticalAlign=middle;whiteSpace=wrap;rounded=0;fontStyle=2;fontColor=#808080;" parent="7LQwqWcmf4sO_3C_LHzw-104" vertex="1">
          <mxGeometry y="20" width="40" height="20" as="geometry" />
        </mxCell>
        <mxCell id="7LQwqWcmf4sO_3C_LHzw-107" value="0" style="text;html=1;strokeColor=none;fillColor=none;align=center;verticalAlign=middle;whiteSpace=wrap;rounded=0;fontStyle=2;fontColor=#808080;" parent="UZRYZXfFxwNRGI_YSuTB-1" vertex="1">
          <mxGeometry x="220" y="490" width="40" height="20" as="geometry" />
        </mxCell>
        <mxCell id="7LQwqWcmf4sO_3C_LHzw-108" value="1" style="text;html=1;strokeColor=none;fillColor=none;align=center;verticalAlign=middle;whiteSpace=wrap;rounded=0;fontStyle=2;fontColor=#808080;" parent="UZRYZXfFxwNRGI_YSuTB-1" vertex="1">
          <mxGeometry x="451.5" y="490" width="40" height="20" as="geometry" />
        </mxCell>
        <mxCell id="7LQwqWcmf4sO_3C_LHzw-111" value="s1" style="text;html=1;strokeColor=none;fillColor=none;align=right;verticalAlign=middle;whiteSpace=wrap;rounded=0;" parent="UZRYZXfFxwNRGI_YSuTB-1" vertex="1">
          <mxGeometry x="78" y="540" width="60" height="20" as="geometry" />
        </mxCell>
        <mxCell id="7LQwqWcmf4sO_3C_LHzw-136" value="" style="rounded=0;whiteSpace=wrap;html=1;" parent="UZRYZXfFxwNRGI_YSuTB-1" vertex="1">
          <mxGeometry x="142.5" y="545" width="10" height="10" as="geometry" />
        </mxCell>
        <mxCell id="7LQwqWcmf4sO_3C_LHzw-137" value="" style="endArrow=classic;html=1;entryX=0.25;entryY=1;entryDx=0;entryDy=0;edgeStyle=orthogonalEdgeStyle;curved=1;exitX=0.5;exitY=0.533;exitDx=0;exitDy=0;exitPerimeter=0;" parent="UZRYZXfFxwNRGI_YSuTB-1" source="7LQwqWcmf4sO_3C_LHzw-136" target="7LQwqWcmf4sO_3C_LHzw-66" edge="1">
          <mxGeometry width="50" height="50" relative="1" as="geometry">
            <mxPoint x="162.5" y="545" as="sourcePoint" />
            <mxPoint x="162.5" y="510" as="targetPoint" />
            <Array as="points">
              <mxPoint x="196" y="550" />
            </Array>
          </mxGeometry>
        </mxCell>
      </root>
    </mxGraphModel>
  </diagram>
  <diagram id="cyP4R8PdrO6z57kixpCU" name="Page-3">
    <mxGraphModel dx="1072" dy="952" grid="1" gridSize="10" guides="1" tooltips="1" connect="1" arrows="1" fold="1" page="1" pageScale="1" pageWidth="850" pageHeight="1100" math="0" shadow="0">
      <root>
        <mxCell id="IqBShLR_6l1rklYE_UoU-0" />
        <mxCell id="IqBShLR_6l1rklYE_UoU-1" parent="IqBShLR_6l1rklYE_UoU-0" />
        <mxCell id="SYRorvwK__UCtITSG4TT-0" value="" style="rounded=0;whiteSpace=wrap;html=1;" parent="IqBShLR_6l1rklYE_UoU-1" vertex="1">
          <mxGeometry x="235" y="90" width="195" height="230" as="geometry" />
        </mxCell>
        <mxCell id="IqBShLR_6l1rklYE_UoU-2" value="" style="rounded=0;whiteSpace=wrap;html=1;" parent="IqBShLR_6l1rklYE_UoU-1" vertex="1">
          <mxGeometry x="273.5" y="120" width="135" height="80" as="geometry" />
        </mxCell>
        <mxCell id="IqBShLR_6l1rklYE_UoU-3" value="" style="group" parent="IqBShLR_6l1rklYE_UoU-1" vertex="1" connectable="0">
          <mxGeometry x="278.5" y="130" width="110" height="30" as="geometry" />
        </mxCell>
        <mxCell id="IqBShLR_6l1rklYE_UoU-4" value="3" style="rounded=0;whiteSpace=wrap;html=1;" parent="IqBShLR_6l1rklYE_UoU-3" vertex="1">
          <mxGeometry x="40" width="70" height="30" as="geometry" />
        </mxCell>
        <mxCell id="IqBShLR_6l1rklYE_UoU-5" value="m_x" style="text;html=1;strokeColor=none;fillColor=none;align=right;verticalAlign=middle;whiteSpace=wrap;rounded=0;" parent="IqBShLR_6l1rklYE_UoU-3" vertex="1">
          <mxGeometry x="-22" y="5" width="60" height="20" as="geometry" />
        </mxCell>
        <mxCell id="IqBShLR_6l1rklYE_UoU-6" value="p1" style="text;html=1;strokeColor=none;fillColor=none;align=right;verticalAlign=middle;whiteSpace=wrap;rounded=0;" parent="IqBShLR_6l1rklYE_UoU-3" vertex="1">
          <mxGeometry x="-65" y="-10" width="60" height="20" as="geometry" />
        </mxCell>
        <mxCell id="IqBShLR_6l1rklYE_UoU-7" value="" style="group" parent="IqBShLR_6l1rklYE_UoU-1" vertex="1" connectable="0">
          <mxGeometry x="278.5" y="160" width="110" height="30" as="geometry" />
        </mxCell>
        <mxCell id="IqBShLR_6l1rklYE_UoU-8" value="4" style="rounded=0;whiteSpace=wrap;html=1;" parent="IqBShLR_6l1rklYE_UoU-7" vertex="1">
          <mxGeometry x="40" width="70" height="30" as="geometry" />
        </mxCell>
        <mxCell id="IqBShLR_6l1rklYE_UoU-9" value="m_y" style="text;html=1;strokeColor=none;fillColor=none;align=right;verticalAlign=middle;whiteSpace=wrap;rounded=0;" parent="IqBShLR_6l1rklYE_UoU-7" vertex="1">
          <mxGeometry x="-22" y="5" width="60" height="20" as="geometry" />
        </mxCell>
        <mxCell id="IqBShLR_6l1rklYE_UoU-10" value="" style="rounded=0;whiteSpace=wrap;html=1;" parent="IqBShLR_6l1rklYE_UoU-1" vertex="1">
          <mxGeometry x="273.5" y="220" width="135" height="80" as="geometry" />
        </mxCell>
        <mxCell id="IqBShLR_6l1rklYE_UoU-11" value="" style="group" parent="IqBShLR_6l1rklYE_UoU-1" vertex="1" connectable="0">
          <mxGeometry x="278.5" y="230" width="110" height="30" as="geometry" />
        </mxCell>
        <mxCell id="IqBShLR_6l1rklYE_UoU-12" value="6" style="rounded=0;whiteSpace=wrap;html=1;" parent="IqBShLR_6l1rklYE_UoU-11" vertex="1">
          <mxGeometry x="40" width="70" height="30" as="geometry" />
        </mxCell>
        <mxCell id="IqBShLR_6l1rklYE_UoU-13" value="m_x" style="text;html=1;strokeColor=none;fillColor=none;align=right;verticalAlign=middle;whiteSpace=wrap;rounded=0;" parent="IqBShLR_6l1rklYE_UoU-11" vertex="1">
          <mxGeometry x="-22" y="5" width="60" height="20" as="geometry" />
        </mxCell>
        <mxCell id="IqBShLR_6l1rklYE_UoU-14" value="p2" style="text;html=1;strokeColor=none;fillColor=none;align=right;verticalAlign=middle;whiteSpace=wrap;rounded=0;" parent="IqBShLR_6l1rklYE_UoU-11" vertex="1">
          <mxGeometry x="-65" y="-10" width="60" height="20" as="geometry" />
        </mxCell>
        <mxCell id="IqBShLR_6l1rklYE_UoU-15" value="" style="group" parent="IqBShLR_6l1rklYE_UoU-1" vertex="1" connectable="0">
          <mxGeometry x="278.5" y="260" width="110" height="30" as="geometry" />
        </mxCell>
        <mxCell id="IqBShLR_6l1rklYE_UoU-16" value="8" style="rounded=0;whiteSpace=wrap;html=1;" parent="IqBShLR_6l1rklYE_UoU-15" vertex="1">
          <mxGeometry x="40" width="70" height="30" as="geometry" />
        </mxCell>
        <mxCell id="IqBShLR_6l1rklYE_UoU-17" value="m_y" style="text;html=1;strokeColor=none;fillColor=none;align=right;verticalAlign=middle;whiteSpace=wrap;rounded=0;" parent="IqBShLR_6l1rklYE_UoU-15" vertex="1">
          <mxGeometry x="-22" y="5" width="60" height="20" as="geometry" />
        </mxCell>
        <mxCell id="SYRorvwK__UCtITSG4TT-1" value="&lt;i&gt;main stack frame&lt;/i&gt;" style="text;html=1;strokeColor=none;fillColor=none;align=left;verticalAlign=middle;whiteSpace=wrap;rounded=0;" parent="IqBShLR_6l1rklYE_UoU-1" vertex="1">
          <mxGeometry x="235" y="90" width="190" height="20" as="geometry" />
        </mxCell>
        <mxCell id="SYRorvwK__UCtITSG4TT-2" value="" style="rounded=0;whiteSpace=wrap;html=1;" parent="IqBShLR_6l1rklYE_UoU-1" vertex="1">
          <mxGeometry x="235" y="320" width="195" height="70" as="geometry" />
        </mxCell>
        <mxCell id="SYRorvwK__UCtITSG4TT-3" value="&lt;i&gt;Point::distanceTo stack frame&lt;/i&gt;" style="text;html=1;strokeColor=none;fillColor=none;align=left;verticalAlign=middle;whiteSpace=wrap;rounded=0;" parent="IqBShLR_6l1rklYE_UoU-1" vertex="1">
          <mxGeometry x="235" y="320" width="190" height="20" as="geometry" />
        </mxCell>
        <mxCell id="InzfWeUYPKELGDHgSlXj-0" value="this" style="text;html=1;strokeColor=none;fillColor=none;align=right;verticalAlign=middle;whiteSpace=wrap;rounded=0;" parent="IqBShLR_6l1rklYE_UoU-1" vertex="1">
          <mxGeometry x="278.5" y="359" width="60" height="20" as="geometry" />
        </mxCell>
        <mxCell id="InzfWeUYPKELGDHgSlXj-1" value="" style="rounded=0;whiteSpace=wrap;html=1;" parent="IqBShLR_6l1rklYE_UoU-1" vertex="1">
          <mxGeometry x="343" y="364" width="10" height="10" as="geometry" />
        </mxCell>
        <mxCell id="InzfWeUYPKELGDHgSlXj-2" value="" style="endArrow=classic;html=1;entryX=1;entryY=0.5;entryDx=0;entryDy=0;edgeStyle=orthogonalEdgeStyle;curved=1;exitX=0.5;exitY=0.533;exitDx=0;exitDy=0;exitPerimeter=0;" parent="IqBShLR_6l1rklYE_UoU-1" source="InzfWeUYPKELGDHgSlXj-1" target="IqBShLR_6l1rklYE_UoU-2" edge="1">
          <mxGeometry width="50" height="50" relative="1" as="geometry">
            <mxPoint x="363" y="375" as="sourcePoint" />
            <mxPoint x="396.75" y="320" as="targetPoint" />
            <Array as="points">
              <mxPoint x="450" y="369" />
              <mxPoint x="450" y="160" />
            </Array>
          </mxGeometry>
        </mxCell>
        <mxCell id="InzfWeUYPKELGDHgSlXj-8" value="other" style="text;html=1;strokeColor=none;fillColor=none;align=right;verticalAlign=middle;whiteSpace=wrap;rounded=0;" parent="IqBShLR_6l1rklYE_UoU-1" vertex="1">
          <mxGeometry x="278.5" y="338" width="60" height="20" as="geometry" />
        </mxCell>
        <mxCell id="InzfWeUYPKELGDHgSlXj-9" value="" style="rounded=0;whiteSpace=wrap;html=1;" parent="IqBShLR_6l1rklYE_UoU-1" vertex="1">
          <mxGeometry x="343" y="343" width="10" height="10" as="geometry" />
        </mxCell>
        <mxCell id="InzfWeUYPKELGDHgSlXj-10" value="" style="endArrow=classic;html=1;entryX=1;entryY=1;entryDx=0;entryDy=0;edgeStyle=orthogonalEdgeStyle;curved=1;exitX=0.5;exitY=0.6;exitDx=0;exitDy=0;exitPerimeter=0;" parent="IqBShLR_6l1rklYE_UoU-1" source="InzfWeUYPKELGDHgSlXj-9" target="IqBShLR_6l1rklYE_UoU-10" edge="1">
          <mxGeometry width="50" height="50" relative="1" as="geometry">
            <mxPoint x="347" y="376.33000000000004" as="sourcePoint" />
            <mxPoint x="407.5" y="180" as="targetPoint" />
            <Array as="points">
              <mxPoint x="409" y="349" />
              <mxPoint x="409" y="320" />
              <mxPoint x="409" y="320" />
            </Array>
          </mxGeometry>
        </mxCell>
        <mxCell id="InzfWeUYPKELGDHgSlXj-13" value="" style="rounded=0;whiteSpace=wrap;html=1;" parent="IqBShLR_6l1rklYE_UoU-1" vertex="1">
          <mxGeometry x="501.5" y="94" width="195" height="126" as="geometry" />
        </mxCell>
        <mxCell id="InzfWeUYPKELGDHgSlXj-14" value="" style="rounded=0;whiteSpace=wrap;html=1;" parent="IqBShLR_6l1rklYE_UoU-1" vertex="1">
          <mxGeometry x="540" y="124" width="135" height="80" as="geometry" />
        </mxCell>
        <mxCell id="InzfWeUYPKELGDHgSlXj-15" value="" style="group" parent="IqBShLR_6l1rklYE_UoU-1" vertex="1" connectable="0">
          <mxGeometry x="545" y="134" width="110" height="30" as="geometry" />
        </mxCell>
        <mxCell id="InzfWeUYPKELGDHgSlXj-16" value="3" style="rounded=0;whiteSpace=wrap;html=1;" parent="InzfWeUYPKELGDHgSlXj-15" vertex="1">
          <mxGeometry x="40" width="70" height="30" as="geometry" />
        </mxCell>
        <mxCell id="InzfWeUYPKELGDHgSlXj-17" value="m_x" style="text;html=1;strokeColor=none;fillColor=none;align=right;verticalAlign=middle;whiteSpace=wrap;rounded=0;" parent="InzfWeUYPKELGDHgSlXj-15" vertex="1">
          <mxGeometry x="-22" y="5" width="60" height="20" as="geometry" />
        </mxCell>
        <mxCell id="InzfWeUYPKELGDHgSlXj-18" value="p1" style="text;html=1;strokeColor=none;fillColor=none;align=right;verticalAlign=middle;whiteSpace=wrap;rounded=0;" parent="InzfWeUYPKELGDHgSlXj-15" vertex="1">
          <mxGeometry x="-65" y="-10" width="60" height="20" as="geometry" />
        </mxCell>
        <mxCell id="InzfWeUYPKELGDHgSlXj-19" value="" style="group" parent="IqBShLR_6l1rklYE_UoU-1" vertex="1" connectable="0">
          <mxGeometry x="545" y="164" width="110" height="30" as="geometry" />
        </mxCell>
        <mxCell id="InzfWeUYPKELGDHgSlXj-20" value="4" style="rounded=0;whiteSpace=wrap;html=1;" parent="InzfWeUYPKELGDHgSlXj-19" vertex="1">
          <mxGeometry x="40" width="70" height="30" as="geometry" />
        </mxCell>
        <mxCell id="InzfWeUYPKELGDHgSlXj-21" value="m_y" style="text;html=1;strokeColor=none;fillColor=none;align=right;verticalAlign=middle;whiteSpace=wrap;rounded=0;" parent="InzfWeUYPKELGDHgSlXj-19" vertex="1">
          <mxGeometry x="-22" y="5" width="60" height="20" as="geometry" />
        </mxCell>
        <mxCell id="InzfWeUYPKELGDHgSlXj-30" value="&lt;i&gt;main stack frame&lt;/i&gt;" style="text;html=1;strokeColor=none;fillColor=none;align=left;verticalAlign=middle;whiteSpace=wrap;rounded=0;" parent="IqBShLR_6l1rklYE_UoU-1" vertex="1">
          <mxGeometry x="501.5" y="94" width="190" height="20" as="geometry" />
        </mxCell>
        <mxCell id="InzfWeUYPKELGDHgSlXj-31" value="" style="rounded=0;whiteSpace=wrap;html=1;" parent="IqBShLR_6l1rklYE_UoU-1" vertex="1">
          <mxGeometry x="501.5" y="220" width="195" height="50" as="geometry" />
        </mxCell>
        <mxCell id="InzfWeUYPKELGDHgSlXj-32" value="&lt;i&gt;Point::getX stack frame&lt;/i&gt;" style="text;html=1;strokeColor=none;fillColor=none;align=left;verticalAlign=middle;whiteSpace=wrap;rounded=0;" parent="IqBShLR_6l1rklYE_UoU-1" vertex="1">
          <mxGeometry x="501.5" y="220" width="190" height="20" as="geometry" />
        </mxCell>
        <mxCell id="InzfWeUYPKELGDHgSlXj-33" value="this" style="text;html=1;strokeColor=none;fillColor=none;align=right;verticalAlign=middle;whiteSpace=wrap;rounded=0;" parent="IqBShLR_6l1rklYE_UoU-1" vertex="1">
          <mxGeometry x="545" y="242" width="60" height="20" as="geometry" />
        </mxCell>
        <mxCell id="InzfWeUYPKELGDHgSlXj-34" value="" style="rounded=0;whiteSpace=wrap;html=1;" parent="IqBShLR_6l1rklYE_UoU-1" vertex="1">
          <mxGeometry x="609.5" y="247" width="10" height="10" as="geometry" />
        </mxCell>
        <mxCell id="InzfWeUYPKELGDHgSlXj-35" value="" style="endArrow=classic;html=1;entryX=1;entryY=0.5;entryDx=0;entryDy=0;edgeStyle=orthogonalEdgeStyle;curved=1;exitX=0.5;exitY=0.533;exitDx=0;exitDy=0;exitPerimeter=0;" parent="IqBShLR_6l1rklYE_UoU-1" source="InzfWeUYPKELGDHgSlXj-34" target="InzfWeUYPKELGDHgSlXj-14" edge="1">
          <mxGeometry width="50" height="50" relative="1" as="geometry">
            <mxPoint x="629.5" y="379" as="sourcePoint" />
            <mxPoint x="663.25" y="324" as="targetPoint" />
            <Array as="points">
              <mxPoint x="690" y="252" />
              <mxPoint x="690" y="164" />
            </Array>
          </mxGeometry>
        </mxCell>
      </root>
    </mxGraphModel>
  </diagram>
  <diagram id="G77mErAUpoLjCeWikjb0" name="Page-4">
    <mxGraphModel dx="1072" dy="952" grid="1" gridSize="10" guides="1" tooltips="1" connect="1" arrows="1" fold="1" page="1" pageScale="1" pageWidth="850" pageHeight="1100" math="0" shadow="0">
      <root>
        <mxCell id="EmRGdXmLIEDstr5lD1r--0" />
        <mxCell id="EmRGdXmLIEDstr5lD1r--1" parent="EmRGdXmLIEDstr5lD1r--0" />
        <mxCell id="YW4TqXokmgsqk3gaTLWh-1" value="" style="rounded=0;whiteSpace=wrap;html=1;" parent="EmRGdXmLIEDstr5lD1r--1" vertex="1">
          <mxGeometry x="310" y="80" width="173" height="80" as="geometry" />
        </mxCell>
        <mxCell id="YW4TqXokmgsqk3gaTLWh-2" value="" style="group" parent="EmRGdXmLIEDstr5lD1r--1" vertex="1" connectable="0">
          <mxGeometry x="353" y="90" width="110" height="30" as="geometry" />
        </mxCell>
        <mxCell id="YW4TqXokmgsqk3gaTLWh-3" value="&quot;Alice&quot;" style="rounded=0;whiteSpace=wrap;html=1;" parent="YW4TqXokmgsqk3gaTLWh-2" vertex="1">
          <mxGeometry x="40" width="70" height="30" as="geometry" />
        </mxCell>
        <mxCell id="YW4TqXokmgsqk3gaTLWh-4" value="n_name" style="text;html=1;strokeColor=none;fillColor=none;align=right;verticalAlign=middle;whiteSpace=wrap;rounded=0;" parent="YW4TqXokmgsqk3gaTLWh-2" vertex="1">
          <mxGeometry x="-22" y="5" width="60" height="20" as="geometry" />
        </mxCell>
        <mxCell id="YW4TqXokmgsqk3gaTLWh-5" value="s1" style="text;html=1;strokeColor=none;fillColor=none;align=right;verticalAlign=middle;whiteSpace=wrap;rounded=0;" parent="EmRGdXmLIEDstr5lD1r--1" vertex="1">
          <mxGeometry x="250" y="80" width="60" height="20" as="geometry" />
        </mxCell>
        <mxCell id="YW4TqXokmgsqk3gaTLWh-19" value="" style="rounded=0;whiteSpace=wrap;html=1;" parent="EmRGdXmLIEDstr5lD1r--1" vertex="1">
          <mxGeometry x="570" y="80" width="173" height="80" as="geometry" />
        </mxCell>
        <mxCell id="YW4TqXokmgsqk3gaTLWh-20" value="" style="group" parent="EmRGdXmLIEDstr5lD1r--1" vertex="1" connectable="0">
          <mxGeometry x="613" y="90" width="110" height="30" as="geometry" />
        </mxCell>
        <mxCell id="YW4TqXokmgsqk3gaTLWh-21" value="&quot;Bob&quot;" style="rounded=0;whiteSpace=wrap;html=1;" parent="YW4TqXokmgsqk3gaTLWh-20" vertex="1">
          <mxGeometry x="40" width="70" height="30" as="geometry" />
        </mxCell>
        <mxCell id="YW4TqXokmgsqk3gaTLWh-22" value="n_name" style="text;html=1;strokeColor=none;fillColor=none;align=right;verticalAlign=middle;whiteSpace=wrap;rounded=0;" parent="YW4TqXokmgsqk3gaTLWh-20" vertex="1">
          <mxGeometry x="-22" y="5" width="60" height="20" as="geometry" />
        </mxCell>
        <mxCell id="YW4TqXokmgsqk3gaTLWh-26" value="s2" style="text;html=1;strokeColor=none;fillColor=none;align=right;verticalAlign=middle;whiteSpace=wrap;rounded=0;" parent="EmRGdXmLIEDstr5lD1r--1" vertex="1">
          <mxGeometry x="510" y="80" width="60" height="20" as="geometry" />
        </mxCell>
        <mxCell id="YW4TqXokmgsqk3gaTLWh-28" value="2" style="rounded=0;whiteSpace=wrap;html=1;" parent="EmRGdXmLIEDstr5lD1r--1" vertex="1">
          <mxGeometry x="510" y="220" width="70" height="30" as="geometry" />
        </mxCell>
        <mxCell id="YW4TqXokmgsqk3gaTLWh-29" value="Student::numStudents" style="text;html=1;strokeColor=none;fillColor=none;align=right;verticalAlign=middle;whiteSpace=wrap;rounded=0;" parent="EmRGdXmLIEDstr5lD1r--1" vertex="1">
          <mxGeometry x="380" y="225" width="128" height="20" as="geometry" />
        </mxCell>
        <mxCell id="YW4TqXokmgsqk3gaTLWh-25" value="numStudents" style="text;html=1;strokeColor=none;fillColor=none;align=right;verticalAlign=middle;whiteSpace=wrap;rounded=0;" parent="EmRGdXmLIEDstr5lD1r--1" vertex="1">
          <mxGeometry x="591" y="125" width="60" height="20" as="geometry" />
        </mxCell>
        <mxCell id="YW4TqXokmgsqk3gaTLWh-8" value="numStudents" style="text;html=1;strokeColor=none;fillColor=none;align=right;verticalAlign=middle;whiteSpace=wrap;rounded=0;" parent="EmRGdXmLIEDstr5lD1r--1" vertex="1">
          <mxGeometry x="331" y="125" width="60" height="20" as="geometry" />
        </mxCell>
        <mxCell id="YW4TqXokmgsqk3gaTLWh-30" value="" style="endArrow=none;dashed=1;html=1;exitX=0.5;exitY=0;exitDx=0;exitDy=0;entryX=0.671;entryY=0.75;entryDx=0;entryDy=0;entryPerimeter=0;" parent="EmRGdXmLIEDstr5lD1r--1" source="YW4TqXokmgsqk3gaTLWh-28" target="YW4TqXokmgsqk3gaTLWh-1" edge="1">
          <mxGeometry width="50" height="50" relative="1" as="geometry">
            <mxPoint x="353" y="190" as="sourcePoint" />
            <mxPoint x="403" y="140" as="targetPoint" />
          </mxGeometry>
        </mxCell>
        <mxCell id="YW4TqXokmgsqk3gaTLWh-31" value="" style="endArrow=none;dashed=1;html=1;exitX=0.5;exitY=0;exitDx=0;exitDy=0;entryX=0.694;entryY=0.75;entryDx=0;entryDy=0;entryPerimeter=0;" parent="EmRGdXmLIEDstr5lD1r--1" source="YW4TqXokmgsqk3gaTLWh-28" target="YW4TqXokmgsqk3gaTLWh-19" edge="1">
          <mxGeometry width="50" height="50" relative="1" as="geometry">
            <mxPoint x="555" y="229.9999999999999" as="sourcePoint" />
            <mxPoint x="413" y="149.9999999999999" as="targetPoint" />
          </mxGeometry>
        </mxCell>
      </root>
    </mxGraphModel>
  </diagram>
  <diagram id="pbWxpnishOE2-dYX54jk" name="Page-5">
    <mxGraphModel dx="1072" dy="952" grid="1" gridSize="10" guides="1" tooltips="1" connect="1" arrows="1" fold="1" page="1" pageScale="1" pageWidth="850" pageHeight="1100" math="0" shadow="0">
      <root>
        <mxCell id="Pwu_Iogqgg2rBwzwDySm-0" />
        <mxCell id="Pwu_Iogqgg2rBwzwDySm-1" parent="Pwu_Iogqgg2rBwzwDySm-0" />
        <mxCell id="Pwu_Iogqgg2rBwzwDySm-17" value="" style="rounded=0;whiteSpace=wrap;html=1;" parent="Pwu_Iogqgg2rBwzwDySm-1" vertex="1">
          <mxGeometry x="145" y="440" width="135" height="80" as="geometry" />
        </mxCell>
        <mxCell id="Pwu_Iogqgg2rBwzwDySm-18" value="" style="group" parent="Pwu_Iogqgg2rBwzwDySm-1" vertex="1" connectable="0">
          <mxGeometry x="150" y="450" width="110" height="30" as="geometry" />
        </mxCell>
        <mxCell id="Pwu_Iogqgg2rBwzwDySm-19" value="2" style="rounded=0;whiteSpace=wrap;html=1;" parent="Pwu_Iogqgg2rBwzwDySm-18" vertex="1">
          <mxGeometry x="40" width="70" height="30" as="geometry" />
        </mxCell>
        <mxCell id="Pwu_Iogqgg2rBwzwDySm-20" value="m_x" style="text;html=1;strokeColor=none;fillColor=none;align=right;verticalAlign=middle;whiteSpace=wrap;rounded=0;" parent="Pwu_Iogqgg2rBwzwDySm-18" vertex="1">
          <mxGeometry x="-22" y="5" width="60" height="20" as="geometry" />
        </mxCell>
        <mxCell id="Pwu_Iogqgg2rBwzwDySm-21" value="p2" style="text;html=1;strokeColor=none;fillColor=none;align=right;verticalAlign=middle;whiteSpace=wrap;rounded=0;" parent="Pwu_Iogqgg2rBwzwDySm-18" vertex="1">
          <mxGeometry x="-65" y="-10" width="60" height="20" as="geometry" />
        </mxCell>
        <mxCell id="Pwu_Iogqgg2rBwzwDySm-22" value="" style="group" parent="Pwu_Iogqgg2rBwzwDySm-1" vertex="1" connectable="0">
          <mxGeometry x="150" y="480" width="110" height="30" as="geometry" />
        </mxCell>
        <mxCell id="Pwu_Iogqgg2rBwzwDySm-23" value="1" style="rounded=0;whiteSpace=wrap;html=1;" parent="Pwu_Iogqgg2rBwzwDySm-22" vertex="1">
          <mxGeometry x="40" width="70" height="30" as="geometry" />
        </mxCell>
        <mxCell id="Pwu_Iogqgg2rBwzwDySm-24" value="m_y" style="text;html=1;strokeColor=none;fillColor=none;align=right;verticalAlign=middle;whiteSpace=wrap;rounded=0;" parent="Pwu_Iogqgg2rBwzwDySm-22" vertex="1">
          <mxGeometry x="-22" y="5" width="60" height="20" as="geometry" />
        </mxCell>
        <mxCell id="Pwu_Iogqgg2rBwzwDySm-41" value="" style="rounded=0;whiteSpace=wrap;html=1;" parent="Pwu_Iogqgg2rBwzwDySm-1" vertex="1">
          <mxGeometry x="340" y="440" width="230" height="136" as="geometry" />
        </mxCell>
        <mxCell id="Pwu_Iogqgg2rBwzwDySm-43" value="c1" style="text;html=1;strokeColor=none;fillColor=none;align=right;verticalAlign=middle;whiteSpace=wrap;rounded=0;" parent="Pwu_Iogqgg2rBwzwDySm-1" vertex="1">
          <mxGeometry x="280" y="440" width="60" height="20" as="geometry" />
        </mxCell>
        <mxCell id="Pwu_Iogqgg2rBwzwDySm-44" value="" style="rounded=0;whiteSpace=wrap;html=1;" parent="Pwu_Iogqgg2rBwzwDySm-1" vertex="1">
          <mxGeometry x="422" y="479" width="135" height="80" as="geometry" />
        </mxCell>
        <mxCell id="Pwu_Iogqgg2rBwzwDySm-45" value="" style="group" parent="Pwu_Iogqgg2rBwzwDySm-1" vertex="1" connectable="0">
          <mxGeometry x="427" y="489" width="110" height="30" as="geometry" />
        </mxCell>
        <mxCell id="Pwu_Iogqgg2rBwzwDySm-46" value="2" style="rounded=0;whiteSpace=wrap;html=1;" parent="Pwu_Iogqgg2rBwzwDySm-45" vertex="1">
          <mxGeometry x="40" width="70" height="30" as="geometry" />
        </mxCell>
        <mxCell id="Pwu_Iogqgg2rBwzwDySm-47" value="m_x" style="text;html=1;strokeColor=none;fillColor=none;align=right;verticalAlign=middle;whiteSpace=wrap;rounded=0;" parent="Pwu_Iogqgg2rBwzwDySm-45" vertex="1">
          <mxGeometry x="-22" y="5" width="60" height="20" as="geometry" />
        </mxCell>
        <mxCell id="Pwu_Iogqgg2rBwzwDySm-48" value="m_center" style="text;html=1;strokeColor=none;fillColor=none;align=right;verticalAlign=middle;whiteSpace=wrap;rounded=0;" parent="Pwu_Iogqgg2rBwzwDySm-45" vertex="1">
          <mxGeometry x="-65" y="-10" width="60" height="20" as="geometry" />
        </mxCell>
        <mxCell id="Pwu_Iogqgg2rBwzwDySm-49" value="" style="group" parent="Pwu_Iogqgg2rBwzwDySm-1" vertex="1" connectable="0">
          <mxGeometry x="427" y="519" width="110" height="30" as="geometry" />
        </mxCell>
        <mxCell id="Pwu_Iogqgg2rBwzwDySm-50" value="1" style="rounded=0;whiteSpace=wrap;html=1;" parent="Pwu_Iogqgg2rBwzwDySm-49" vertex="1">
          <mxGeometry x="40" width="70" height="30" as="geometry" />
        </mxCell>
        <mxCell id="Pwu_Iogqgg2rBwzwDySm-51" value="m_y" style="text;html=1;strokeColor=none;fillColor=none;align=right;verticalAlign=middle;whiteSpace=wrap;rounded=0;" parent="Pwu_Iogqgg2rBwzwDySm-49" vertex="1">
          <mxGeometry x="-22" y="5" width="60" height="20" as="geometry" />
        </mxCell>
        <mxCell id="Pwu_Iogqgg2rBwzwDySm-52" value="" style="group" parent="Pwu_Iogqgg2rBwzwDySm-1" vertex="1" connectable="0">
          <mxGeometry x="382" y="449" width="175" height="30" as="geometry" />
        </mxCell>
        <mxCell id="Pwu_Iogqgg2rBwzwDySm-53" value="5" style="rounded=0;whiteSpace=wrap;html=1;" parent="Pwu_Iogqgg2rBwzwDySm-52" vertex="1">
          <mxGeometry x="40" width="135" height="30" as="geometry" />
        </mxCell>
        <mxCell id="Pwu_Iogqgg2rBwzwDySm-54" value="m_radius" style="text;html=1;strokeColor=none;fillColor=none;align=right;verticalAlign=middle;whiteSpace=wrap;rounded=0;" parent="Pwu_Iogqgg2rBwzwDySm-52" vertex="1">
          <mxGeometry x="-22" y="5" width="60" height="20" as="geometry" />
        </mxCell>
        <mxCell id="Pwu_Iogqgg2rBwzwDySm-64" value="" style="rounded=0;whiteSpace=wrap;html=1;" parent="Pwu_Iogqgg2rBwzwDySm-1" vertex="1">
          <mxGeometry x="340" y="630" width="230" height="136" as="geometry" />
        </mxCell>
        <mxCell id="Pwu_Iogqgg2rBwzwDySm-65" value="c1" style="text;html=1;strokeColor=none;fillColor=none;align=right;verticalAlign=middle;whiteSpace=wrap;rounded=0;" parent="Pwu_Iogqgg2rBwzwDySm-1" vertex="1">
          <mxGeometry x="280" y="630" width="60" height="20" as="geometry" />
        </mxCell>
        <mxCell id="Pwu_Iogqgg2rBwzwDySm-66" value="" style="rounded=0;whiteSpace=wrap;html=1;" parent="Pwu_Iogqgg2rBwzwDySm-1" vertex="1">
          <mxGeometry x="422" y="669" width="135" height="80" as="geometry" />
        </mxCell>
        <mxCell id="Pwu_Iogqgg2rBwzwDySm-67" value="" style="group" parent="Pwu_Iogqgg2rBwzwDySm-1" vertex="1" connectable="0">
          <mxGeometry x="427" y="679" width="110" height="30" as="geometry" />
        </mxCell>
        <mxCell id="Pwu_Iogqgg2rBwzwDySm-68" value="2" style="rounded=0;whiteSpace=wrap;html=1;" parent="Pwu_Iogqgg2rBwzwDySm-67" vertex="1">
          <mxGeometry x="40" width="70" height="30" as="geometry" />
        </mxCell>
        <mxCell id="Pwu_Iogqgg2rBwzwDySm-69" value="m_x" style="text;html=1;strokeColor=none;fillColor=none;align=right;verticalAlign=middle;whiteSpace=wrap;rounded=0;" parent="Pwu_Iogqgg2rBwzwDySm-67" vertex="1">
          <mxGeometry x="-22" y="5" width="60" height="20" as="geometry" />
        </mxCell>
        <mxCell id="Pwu_Iogqgg2rBwzwDySm-70" value="m_center" style="text;html=1;strokeColor=none;fillColor=none;align=right;verticalAlign=middle;whiteSpace=wrap;rounded=0;" parent="Pwu_Iogqgg2rBwzwDySm-67" vertex="1">
          <mxGeometry x="-65" y="-10" width="60" height="20" as="geometry" />
        </mxCell>
        <mxCell id="Pwu_Iogqgg2rBwzwDySm-71" value="" style="group" parent="Pwu_Iogqgg2rBwzwDySm-1" vertex="1" connectable="0">
          <mxGeometry x="427" y="709" width="110" height="30" as="geometry" />
        </mxCell>
        <mxCell id="Pwu_Iogqgg2rBwzwDySm-72" value="1" style="rounded=0;whiteSpace=wrap;html=1;" parent="Pwu_Iogqgg2rBwzwDySm-71" vertex="1">
          <mxGeometry x="40" width="70" height="30" as="geometry" />
        </mxCell>
        <mxCell id="Pwu_Iogqgg2rBwzwDySm-73" value="m_y" style="text;html=1;strokeColor=none;fillColor=none;align=right;verticalAlign=middle;whiteSpace=wrap;rounded=0;" parent="Pwu_Iogqgg2rBwzwDySm-71" vertex="1">
          <mxGeometry x="-22" y="5" width="60" height="20" as="geometry" />
        </mxCell>
        <mxCell id="Pwu_Iogqgg2rBwzwDySm-74" value="" style="group" parent="Pwu_Iogqgg2rBwzwDySm-1" vertex="1" connectable="0">
          <mxGeometry x="382" y="639" width="175" height="30" as="geometry" />
        </mxCell>
        <mxCell id="Pwu_Iogqgg2rBwzwDySm-75" value="5" style="rounded=0;whiteSpace=wrap;html=1;" parent="Pwu_Iogqgg2rBwzwDySm-74" vertex="1">
          <mxGeometry x="40" width="135" height="30" as="geometry" />
        </mxCell>
        <mxCell id="Pwu_Iogqgg2rBwzwDySm-76" value="m_radius" style="text;html=1;strokeColor=none;fillColor=none;align=right;verticalAlign=middle;whiteSpace=wrap;rounded=0;" parent="Pwu_Iogqgg2rBwzwDySm-74" vertex="1">
          <mxGeometry x="-22" y="5" width="60" height="20" as="geometry" />
        </mxCell>
        <mxCell id="Pwu_Iogqgg2rBwzwDySm-77" value="p3" style="text;html=1;strokeColor=none;fillColor=none;align=right;verticalAlign=middle;whiteSpace=wrap;rounded=0;" parent="Pwu_Iogqgg2rBwzwDySm-1" vertex="1">
          <mxGeometry x="170" y="630" width="60" height="20" as="geometry" />
        </mxCell>
        <mxCell id="iVzg-lwiF6OesypQxWIF-1" value="" style="rounded=0;whiteSpace=wrap;html=1;" parent="Pwu_Iogqgg2rBwzwDySm-1" vertex="1">
          <mxGeometry x="235" y="636" width="10" height="10" as="geometry" />
        </mxCell>
        <mxCell id="iVzg-lwiF6OesypQxWIF-2" value="" style="endArrow=classic;html=1;entryX=0;entryY=0.5;entryDx=0;entryDy=0;edgeStyle=orthogonalEdgeStyle;curved=1;exitX=0.5;exitY=0.533;exitDx=0;exitDy=0;exitPerimeter=0;" parent="Pwu_Iogqgg2rBwzwDySm-1" source="iVzg-lwiF6OesypQxWIF-1" target="Pwu_Iogqgg2rBwzwDySm-66" edge="1">
          <mxGeometry width="50" height="50" relative="1" as="geometry">
            <mxPoint x="255" y="636" as="sourcePoint" />
            <mxPoint x="288.75" y="581" as="targetPoint" />
            <Array as="points">
              <mxPoint x="289" y="641" />
              <mxPoint x="289" y="709" />
            </Array>
          </mxGeometry>
        </mxCell>
      </root>
    </mxGraphModel>
  </diagram>
  <diagram id="rBwKSH8Rrr9EmPXnIEMb" name="Page-6">
    <mxGraphModel dx="739" dy="657" grid="1" gridSize="10" guides="1" tooltips="1" connect="1" arrows="1" fold="1" page="1" pageScale="1" pageWidth="850" pageHeight="1100" math="0" shadow="0">
      <root>
        <mxCell id="BrGwMjvk_HADI9HYslTj-0" />
        <mxCell id="BrGwMjvk_HADI9HYslTj-1" parent="BrGwMjvk_HADI9HYslTj-0" />
        <mxCell id="I4kYRT1rdegbXpL61SGu-0" value="" style="rounded=0;whiteSpace=wrap;html=1;" vertex="1" parent="BrGwMjvk_HADI9HYslTj-1">
          <mxGeometry x="340" y="440" width="230" height="210" as="geometry" />
        </mxCell>
        <mxCell id="I4kYRT1rdegbXpL61SGu-1" value="s1" style="text;html=1;strokeColor=none;fillColor=none;align=right;verticalAlign=middle;whiteSpace=wrap;rounded=0;" vertex="1" parent="BrGwMjvk_HADI9HYslTj-1">
          <mxGeometry x="280" y="440" width="60" height="20" as="geometry" />
        </mxCell>
        <mxCell id="I4kYRT1rdegbXpL61SGu-2" value="" style="rounded=0;whiteSpace=wrap;html=1;" vertex="1" parent="BrGwMjvk_HADI9HYslTj-1">
          <mxGeometry x="422" y="479" width="135" height="80" as="geometry" />
        </mxCell>
        <mxCell id="I4kYRT1rdegbXpL61SGu-3" value="" style="group" vertex="1" connectable="0" parent="BrGwMjvk_HADI9HYslTj-1">
          <mxGeometry x="427" y="489" width="110" height="30" as="geometry" />
        </mxCell>
        <mxCell id="I4kYRT1rdegbXpL61SGu-4" value="2" style="rounded=0;whiteSpace=wrap;html=1;" vertex="1" parent="I4kYRT1rdegbXpL61SGu-3">
          <mxGeometry x="40" width="70" height="30" as="geometry" />
        </mxCell>
        <mxCell id="I4kYRT1rdegbXpL61SGu-5" value="m_x" style="text;html=1;strokeColor=none;fillColor=none;align=right;verticalAlign=middle;whiteSpace=wrap;rounded=0;" vertex="1" parent="I4kYRT1rdegbXpL61SGu-3">
          <mxGeometry x="-22" y="5" width="60" height="20" as="geometry" />
        </mxCell>
        <mxCell id="I4kYRT1rdegbXpL61SGu-6" value="m_start" style="text;html=1;strokeColor=none;fillColor=none;align=right;verticalAlign=middle;whiteSpace=wrap;rounded=0;" vertex="1" parent="I4kYRT1rdegbXpL61SGu-3">
          <mxGeometry x="-65" y="-10" width="60" height="20" as="geometry" />
        </mxCell>
        <mxCell id="I4kYRT1rdegbXpL61SGu-7" value="" style="group" vertex="1" connectable="0" parent="BrGwMjvk_HADI9HYslTj-1">
          <mxGeometry x="427" y="519" width="110" height="30" as="geometry" />
        </mxCell>
        <mxCell id="I4kYRT1rdegbXpL61SGu-8" value="1" style="rounded=0;whiteSpace=wrap;html=1;" vertex="1" parent="I4kYRT1rdegbXpL61SGu-7">
          <mxGeometry x="40" width="70" height="30" as="geometry" />
        </mxCell>
        <mxCell id="I4kYRT1rdegbXpL61SGu-9" value="m_y" style="text;html=1;strokeColor=none;fillColor=none;align=right;verticalAlign=middle;whiteSpace=wrap;rounded=0;" vertex="1" parent="I4kYRT1rdegbXpL61SGu-7">
          <mxGeometry x="-22" y="5" width="60" height="20" as="geometry" />
        </mxCell>
        <mxCell id="I4kYRT1rdegbXpL61SGu-10" value="" style="group" vertex="1" connectable="0" parent="BrGwMjvk_HADI9HYslTj-1">
          <mxGeometry x="382" y="449" width="175" height="30" as="geometry" />
        </mxCell>
        <mxCell id="I4kYRT1rdegbXpL61SGu-11" value="&quot;Segment AB&quot;" style="rounded=0;whiteSpace=wrap;html=1;" vertex="1" parent="I4kYRT1rdegbXpL61SGu-10">
          <mxGeometry x="40" width="135" height="30" as="geometry" />
        </mxCell>
        <mxCell id="I4kYRT1rdegbXpL61SGu-12" value="m_label" style="text;html=1;strokeColor=none;fillColor=none;align=right;verticalAlign=middle;whiteSpace=wrap;rounded=0;" vertex="1" parent="I4kYRT1rdegbXpL61SGu-10">
          <mxGeometry x="-22" y="5" width="60" height="20" as="geometry" />
        </mxCell>
        <mxCell id="I4kYRT1rdegbXpL61SGu-13" value="" style="rounded=0;whiteSpace=wrap;html=1;" vertex="1" parent="BrGwMjvk_HADI9HYslTj-1">
          <mxGeometry x="422" y="559" width="135" height="80" as="geometry" />
        </mxCell>
        <mxCell id="I4kYRT1rdegbXpL61SGu-14" value="" style="group" vertex="1" connectable="0" parent="BrGwMjvk_HADI9HYslTj-1">
          <mxGeometry x="427" y="569" width="110" height="30" as="geometry" />
        </mxCell>
        <mxCell id="I4kYRT1rdegbXpL61SGu-15" value="5" style="rounded=0;whiteSpace=wrap;html=1;" vertex="1" parent="I4kYRT1rdegbXpL61SGu-14">
          <mxGeometry x="40" width="70" height="30" as="geometry" />
        </mxCell>
        <mxCell id="I4kYRT1rdegbXpL61SGu-16" value="m_x" style="text;html=1;strokeColor=none;fillColor=none;align=right;verticalAlign=middle;whiteSpace=wrap;rounded=0;" vertex="1" parent="I4kYRT1rdegbXpL61SGu-14">
          <mxGeometry x="-22" y="5" width="60" height="20" as="geometry" />
        </mxCell>
        <mxCell id="I4kYRT1rdegbXpL61SGu-17" value="m_end" style="text;html=1;strokeColor=none;fillColor=none;align=right;verticalAlign=middle;whiteSpace=wrap;rounded=0;" vertex="1" parent="I4kYRT1rdegbXpL61SGu-14">
          <mxGeometry x="-65" y="-10" width="60" height="20" as="geometry" />
        </mxCell>
        <mxCell id="I4kYRT1rdegbXpL61SGu-18" value="" style="group" vertex="1" connectable="0" parent="BrGwMjvk_HADI9HYslTj-1">
          <mxGeometry x="427" y="599" width="110" height="30" as="geometry" />
        </mxCell>
        <mxCell id="I4kYRT1rdegbXpL61SGu-19" value="4" style="rounded=0;whiteSpace=wrap;html=1;" vertex="1" parent="I4kYRT1rdegbXpL61SGu-18">
          <mxGeometry x="40" width="70" height="30" as="geometry" />
        </mxCell>
        <mxCell id="I4kYRT1rdegbXpL61SGu-20" value="m_y" style="text;html=1;strokeColor=none;fillColor=none;align=right;verticalAlign=middle;whiteSpace=wrap;rounded=0;" vertex="1" parent="I4kYRT1rdegbXpL61SGu-18">
          <mxGeometry x="-22" y="5" width="60" height="20" as="geometry" />
        </mxCell>
      </root>
    </mxGraphModel>
  </diagram>
  <diagram id="RlUKVCp8rI_VPMTuJqzA" name="Page-7">
    <mxGraphModel dx="1699" dy="1168" grid="1" gridSize="10" guides="1" tooltips="1" connect="1" arrows="1" fold="1" page="1" pageScale="1" pageWidth="850" pageHeight="1100" math="0" shadow="0">
      <root>
        <mxCell id="0" />
        <mxCell id="1" parent="0" />
        <mxCell id="yuv3cZAgBNkuir_dxiHX-1" value="&lt;span style=&quot;font-family: &amp;quot;trebuchet ms&amp;quot; , &amp;quot;verdana&amp;quot; , &amp;quot;arial&amp;quot; , sans-serif ; font-size: 16px&quot;&gt;0x7ffc622069c0&lt;/span&gt;" style="rounded=0;whiteSpace=wrap;html=1;fillColor=none;strokeColor=none;fontStyle=2;fontColor=#007FFF;" vertex="1" parent="1">
          <mxGeometry x="160" y="320" width="120" height="20" as="geometry" />
        </mxCell>
        <mxCell id="yuv3cZAgBNkuir_dxiHX-5" value="p" style="text;html=1;strokeColor=none;fillColor=none;align=center;verticalAlign=middle;whiteSpace=wrap;rounded=0;fontColor=#000000;" vertex="1" parent="1">
          <mxGeometry x="436" y="350" width="40" height="20" as="geometry" />
        </mxCell>
        <mxCell id="yuv3cZAgBNkuir_dxiHX-7" value="Address" style="text;html=1;strokeColor=none;fillColor=none;align=center;verticalAlign=middle;whiteSpace=wrap;rounded=0;fontColor=#000000;" vertex="1" parent="1">
          <mxGeometry x="160" y="300" width="120" height="20" as="geometry" />
        </mxCell>
        <mxCell id="yuv3cZAgBNkuir_dxiHX-8" value="Data" style="text;html=1;strokeColor=none;fillColor=none;align=center;verticalAlign=middle;whiteSpace=wrap;rounded=0;fontColor=#000000;" vertex="1" parent="1">
          <mxGeometry x="287.5" y="300" width="120" height="20" as="geometry" />
        </mxCell>
        <mxCell id="yuv3cZAgBNkuir_dxiHX-9" value="Name" style="text;html=1;strokeColor=none;fillColor=none;align=center;verticalAlign=middle;whiteSpace=wrap;rounded=0;fontColor=#000000;" vertex="1" parent="1">
          <mxGeometry x="416" y="300" width="80" height="20" as="geometry" />
        </mxCell>
        <mxCell id="MOAvCzdpr-3-Nm_xs_JS-9" value="" style="group" vertex="1" connectable="0" parent="1">
          <mxGeometry x="280" y="320" width="135" height="80" as="geometry" />
        </mxCell>
        <mxCell id="MOAvCzdpr-3-Nm_xs_JS-1" value="" style="rounded=0;whiteSpace=wrap;html=1;" vertex="1" parent="MOAvCzdpr-3-Nm_xs_JS-9">
          <mxGeometry width="135" height="80" as="geometry" />
        </mxCell>
        <mxCell id="MOAvCzdpr-3-Nm_xs_JS-2" value="" style="group" vertex="1" connectable="0" parent="MOAvCzdpr-3-Nm_xs_JS-9">
          <mxGeometry x="5" y="10" width="110" height="30" as="geometry" />
        </mxCell>
        <mxCell id="MOAvCzdpr-3-Nm_xs_JS-3" value="0" style="rounded=0;whiteSpace=wrap;html=1;" vertex="1" parent="MOAvCzdpr-3-Nm_xs_JS-2">
          <mxGeometry x="40" width="70" height="30" as="geometry" />
        </mxCell>
        <mxCell id="MOAvCzdpr-3-Nm_xs_JS-4" value="m_x" style="text;html=1;strokeColor=none;fillColor=none;align=right;verticalAlign=middle;whiteSpace=wrap;rounded=0;" vertex="1" parent="MOAvCzdpr-3-Nm_xs_JS-2">
          <mxGeometry x="-22" y="5" width="60" height="20" as="geometry" />
        </mxCell>
        <mxCell id="MOAvCzdpr-3-Nm_xs_JS-6" value="" style="group" vertex="1" connectable="0" parent="MOAvCzdpr-3-Nm_xs_JS-9">
          <mxGeometry x="5" y="40" width="110" height="30" as="geometry" />
        </mxCell>
        <mxCell id="MOAvCzdpr-3-Nm_xs_JS-7" value="0" style="rounded=0;whiteSpace=wrap;html=1;" vertex="1" parent="MOAvCzdpr-3-Nm_xs_JS-6">
          <mxGeometry x="40" width="70" height="30" as="geometry" />
        </mxCell>
        <mxCell id="MOAvCzdpr-3-Nm_xs_JS-8" value="m_y" style="text;html=1;strokeColor=none;fillColor=none;align=right;verticalAlign=middle;whiteSpace=wrap;rounded=0;" vertex="1" parent="MOAvCzdpr-3-Nm_xs_JS-6">
          <mxGeometry x="-22" y="5" width="60" height="20" as="geometry" />
        </mxCell>
        <mxCell id="S6ddRYBbx_LtBmv2bSpm-2" value="" style="rounded=0;whiteSpace=wrap;html=1;" vertex="1" parent="1">
          <mxGeometry x="170" y="560" width="190" height="210" as="geometry" />
        </mxCell>
        <mxCell id="S6ddRYBbx_LtBmv2bSpm-6" value="&lt;i&gt;main stack frame&lt;/i&gt;" style="text;html=1;strokeColor=none;fillColor=none;align=left;verticalAlign=middle;whiteSpace=wrap;rounded=0;" vertex="1" parent="1">
          <mxGeometry x="170" y="560" width="190" height="20" as="geometry" />
        </mxCell>
        <mxCell id="S6ddRYBbx_LtBmv2bSpm-20" value="" style="group" vertex="1" connectable="0" parent="1">
          <mxGeometry x="210" y="580" width="135" height="80" as="geometry" />
        </mxCell>
        <mxCell id="S6ddRYBbx_LtBmv2bSpm-21" value="" style="rounded=0;whiteSpace=wrap;html=1;" vertex="1" parent="S6ddRYBbx_LtBmv2bSpm-20">
          <mxGeometry width="135" height="80" as="geometry" />
        </mxCell>
        <mxCell id="S6ddRYBbx_LtBmv2bSpm-22" value="" style="group" vertex="1" connectable="0" parent="S6ddRYBbx_LtBmv2bSpm-20">
          <mxGeometry x="5" y="10" width="110" height="30" as="geometry" />
        </mxCell>
        <mxCell id="S6ddRYBbx_LtBmv2bSpm-23" value="0" style="rounded=0;whiteSpace=wrap;html=1;" vertex="1" parent="S6ddRYBbx_LtBmv2bSpm-22">
          <mxGeometry x="40" width="70" height="30" as="geometry" />
        </mxCell>
        <mxCell id="S6ddRYBbx_LtBmv2bSpm-24" value="m_x" style="text;html=1;strokeColor=none;fillColor=none;align=right;verticalAlign=middle;whiteSpace=wrap;rounded=0;" vertex="1" parent="S6ddRYBbx_LtBmv2bSpm-22">
          <mxGeometry x="-22" y="5" width="60" height="20" as="geometry" />
        </mxCell>
        <mxCell id="S6ddRYBbx_LtBmv2bSpm-25" value="" style="group" vertex="1" connectable="0" parent="S6ddRYBbx_LtBmv2bSpm-20">
          <mxGeometry x="5" y="40" width="110" height="30" as="geometry" />
        </mxCell>
        <mxCell id="S6ddRYBbx_LtBmv2bSpm-26" value="0" style="rounded=0;whiteSpace=wrap;html=1;" vertex="1" parent="S6ddRYBbx_LtBmv2bSpm-25">
          <mxGeometry x="40" width="70" height="30" as="geometry" />
        </mxCell>
        <mxCell id="S6ddRYBbx_LtBmv2bSpm-27" value="m_y" style="text;html=1;strokeColor=none;fillColor=none;align=right;verticalAlign=middle;whiteSpace=wrap;rounded=0;" vertex="1" parent="S6ddRYBbx_LtBmv2bSpm-25">
          <mxGeometry x="-22" y="5" width="60" height="20" as="geometry" />
        </mxCell>
        <mxCell id="S6ddRYBbx_LtBmv2bSpm-28" value="p1" style="text;html=1;strokeColor=none;fillColor=none;align=center;verticalAlign=middle;whiteSpace=wrap;rounded=0;fontColor=#000000;" vertex="1" parent="1">
          <mxGeometry x="170" y="580" width="40" height="20" as="geometry" />
        </mxCell>
        <mxCell id="S6ddRYBbx_LtBmv2bSpm-29" value="&lt;span style=&quot;font-family: &amp;quot;trebuchet ms&amp;quot;, verdana, arial, sans-serif;&quot;&gt;0x...400&lt;/span&gt;" style="rounded=0;whiteSpace=wrap;html=1;fillColor=none;strokeColor=none;fontStyle=2;fontColor=#007FFF;align=right;fontSize=12;" vertex="1" parent="1">
          <mxGeometry x="40" y="580" width="120" height="20" as="geometry" />
        </mxCell>
        <mxCell id="S6ddRYBbx_LtBmv2bSpm-30" value="Address" style="text;html=1;strokeColor=none;fillColor=none;align=right;verticalAlign=middle;whiteSpace=wrap;rounded=0;fontColor=#000000;" vertex="1" parent="1">
          <mxGeometry x="40" y="540" width="120" height="20" as="geometry" />
        </mxCell>
        <mxCell id="S6ddRYBbx_LtBmv2bSpm-34" value="" style="rounded=0;whiteSpace=wrap;html=1;" vertex="1" parent="1">
          <mxGeometry x="170" y="768" width="190" height="72" as="geometry" />
        </mxCell>
        <mxCell id="S6ddRYBbx_LtBmv2bSpm-35" value="&lt;i&gt;getX() stack frame&lt;/i&gt;" style="text;html=1;strokeColor=none;fillColor=none;align=left;verticalAlign=middle;whiteSpace=wrap;rounded=0;" vertex="1" parent="1">
          <mxGeometry x="170" y="768" width="190" height="20" as="geometry" />
        </mxCell>
        <mxCell id="S6ddRYBbx_LtBmv2bSpm-36" value="" style="group" vertex="1" connectable="0" parent="1">
          <mxGeometry x="220" y="800" width="110" height="30" as="geometry" />
        </mxCell>
        <mxCell id="S6ddRYBbx_LtBmv2bSpm-38" value="this" style="text;html=1;strokeColor=none;fillColor=none;align=right;verticalAlign=middle;whiteSpace=wrap;rounded=0;" vertex="1" parent="S6ddRYBbx_LtBmv2bSpm-36">
          <mxGeometry x="-22" y="5" width="60" height="20" as="geometry" />
        </mxCell>
        <mxCell id="S6ddRYBbx_LtBmv2bSpm-39" value="" style="group" vertex="1" connectable="0" parent="1">
          <mxGeometry x="210" y="660" width="135" height="80" as="geometry" />
        </mxCell>
        <mxCell id="S6ddRYBbx_LtBmv2bSpm-40" value="" style="rounded=0;whiteSpace=wrap;html=1;" vertex="1" parent="S6ddRYBbx_LtBmv2bSpm-39">
          <mxGeometry width="135" height="80" as="geometry" />
        </mxCell>
        <mxCell id="S6ddRYBbx_LtBmv2bSpm-41" value="" style="group" vertex="1" connectable="0" parent="S6ddRYBbx_LtBmv2bSpm-39">
          <mxGeometry x="5" y="10" width="110" height="30" as="geometry" />
        </mxCell>
        <mxCell id="S6ddRYBbx_LtBmv2bSpm-42" value="3" style="rounded=0;whiteSpace=wrap;html=1;" vertex="1" parent="S6ddRYBbx_LtBmv2bSpm-41">
          <mxGeometry x="40" width="70" height="30" as="geometry" />
        </mxCell>
        <mxCell id="S6ddRYBbx_LtBmv2bSpm-43" value="m_x" style="text;html=1;strokeColor=none;fillColor=none;align=right;verticalAlign=middle;whiteSpace=wrap;rounded=0;" vertex="1" parent="S6ddRYBbx_LtBmv2bSpm-41">
          <mxGeometry x="-22" y="5" width="60" height="20" as="geometry" />
        </mxCell>
        <mxCell id="S6ddRYBbx_LtBmv2bSpm-44" value="" style="group" vertex="1" connectable="0" parent="S6ddRYBbx_LtBmv2bSpm-39">
          <mxGeometry x="5" y="40" width="110" height="30" as="geometry" />
        </mxCell>
        <mxCell id="S6ddRYBbx_LtBmv2bSpm-45" value="4" style="rounded=0;whiteSpace=wrap;html=1;" vertex="1" parent="S6ddRYBbx_LtBmv2bSpm-44">
          <mxGeometry x="40" width="70" height="30" as="geometry" />
        </mxCell>
        <mxCell id="S6ddRYBbx_LtBmv2bSpm-46" value="m_y" style="text;html=1;strokeColor=none;fillColor=none;align=right;verticalAlign=middle;whiteSpace=wrap;rounded=0;" vertex="1" parent="S6ddRYBbx_LtBmv2bSpm-44">
          <mxGeometry x="-22" y="5" width="60" height="20" as="geometry" />
        </mxCell>
        <mxCell id="S6ddRYBbx_LtBmv2bSpm-47" value="p2" style="text;html=1;strokeColor=none;fillColor=none;align=center;verticalAlign=middle;whiteSpace=wrap;rounded=0;fontColor=#000000;" vertex="1" parent="1">
          <mxGeometry x="170" y="660" width="40" height="20" as="geometry" />
        </mxCell>
        <mxCell id="S6ddRYBbx_LtBmv2bSpm-48" value="&lt;span style=&quot;font-family: &amp;quot;trebuchet ms&amp;quot;, verdana, arial, sans-serif;&quot;&gt;0x...410&lt;/span&gt;" style="rounded=0;whiteSpace=wrap;html=1;fillColor=none;strokeColor=none;fontStyle=2;fontColor=#000000;align=right;fontSize=12;" vertex="1" parent="1">
          <mxGeometry x="40" y="660" width="120" height="20" as="geometry" />
        </mxCell>
        <mxCell id="S6ddRYBbx_LtBmv2bSpm-49" value="" style="group;fontColor=default;fontStyle=2" vertex="1" connectable="0" parent="1">
          <mxGeometry x="220" y="830" width="110" height="30" as="geometry" />
        </mxCell>
        <mxCell id="S6ddRYBbx_LtBmv2bSpm-37" value="&lt;span style=&quot;color: rgb(0, 127, 255); font-family: &amp;quot;trebuchet ms&amp;quot;, verdana, arial, sans-serif; font-style: italic; text-align: right;&quot;&gt;0x...400&lt;/span&gt;" style="rounded=0;whiteSpace=wrap;html=1;fontSize=12;" vertex="1" parent="S6ddRYBbx_LtBmv2bSpm-49">
          <mxGeometry x="40" y="-30" width="70" height="30" as="geometry" />
        </mxCell>
        <mxCell id="S6ddRYBbx_LtBmv2bSpm-52" value="" style="endArrow=classic;html=1;edgeStyle=orthogonalEdgeStyle;curved=1;exitX=1;exitY=0.5;exitDx=0;exitDy=0;entryX=1.002;entryY=0.434;entryDx=0;entryDy=0;entryPerimeter=0;" edge="1" parent="1">
          <mxGeometry width="50" height="50" relative="1" as="geometry">
            <mxPoint x="330" y="815" as="sourcePoint" />
            <mxPoint x="345" y="615" as="targetPoint" />
            <Array as="points">
              <mxPoint x="390" y="815" />
              <mxPoint x="390" y="615" />
            </Array>
          </mxGeometry>
        </mxCell>
      </root>
    </mxGraphModel>
  </diagram>
  <diagram id="AT4ZEbAF07FPloV_rW1D" name="Page-8">
    <mxGraphModel dx="1444" dy="851" grid="1" gridSize="10" guides="1" tooltips="1" connect="1" arrows="1" fold="1" page="1" pageScale="1" pageWidth="850" pageHeight="1100" math="0" shadow="0">
      <root>
        <mxCell id="0" />
        <mxCell id="1" parent="0" />
        <mxCell id="zDHn615lWNcvlY-enJNe-37" value="" style="endArrow=classic;html=1;entryX=0.25;entryY=0;entryDx=0;entryDy=0;edgeStyle=orthogonalEdgeStyle;curved=1;exitX=1;exitY=0.5;exitDx=0;exitDy=0;" edge="1" parent="1" source="zDHn615lWNcvlY-enJNe-11" target="zDHn615lWNcvlY-enJNe-8">
          <mxGeometry width="50" height="50" relative="1" as="geometry">
            <mxPoint x="255" y="636" as="sourcePoint" />
            <mxPoint x="288.75" y="581" as="targetPoint" />
            <Array as="points">
              <mxPoint x="590" y="495" />
              <mxPoint x="590" y="525" />
            </Array>
          </mxGeometry>
        </mxCell>
        <mxCell id="zDHn615lWNcvlY-enJNe-40" value="" style="group" vertex="1" connectable="0" parent="1">
          <mxGeometry x="640" y="480" width="135" height="80" as="geometry" />
        </mxCell>
        <mxCell id="zDHn615lWNcvlY-enJNe-1" value="" style="rounded=0;whiteSpace=wrap;html=1;" vertex="1" parent="zDHn615lWNcvlY-enJNe-40">
          <mxGeometry width="135" height="80" as="geometry" />
        </mxCell>
        <mxCell id="zDHn615lWNcvlY-enJNe-2" value="" style="group" vertex="1" connectable="0" parent="zDHn615lWNcvlY-enJNe-40">
          <mxGeometry x="5" y="10" width="110" height="30" as="geometry" />
        </mxCell>
        <mxCell id="zDHn615lWNcvlY-enJNe-3" value="3.2" style="rounded=0;whiteSpace=wrap;html=1;" vertex="1" parent="zDHn615lWNcvlY-enJNe-2">
          <mxGeometry x="40" width="70" height="30" as="geometry" />
        </mxCell>
        <mxCell id="zDHn615lWNcvlY-enJNe-4" value="m_x" style="text;html=1;strokeColor=none;fillColor=none;align=right;verticalAlign=middle;whiteSpace=wrap;rounded=0;" vertex="1" parent="zDHn615lWNcvlY-enJNe-2">
          <mxGeometry x="-22" y="5" width="60" height="20" as="geometry" />
        </mxCell>
        <mxCell id="zDHn615lWNcvlY-enJNe-5" value="p1" style="text;html=1;strokeColor=none;fillColor=none;align=right;verticalAlign=middle;whiteSpace=wrap;rounded=0;" vertex="1" parent="zDHn615lWNcvlY-enJNe-2">
          <mxGeometry x="-65" y="-10" width="60" height="20" as="geometry" />
        </mxCell>
        <mxCell id="zDHn615lWNcvlY-enJNe-6" value="" style="group" vertex="1" connectable="0" parent="zDHn615lWNcvlY-enJNe-40">
          <mxGeometry x="5" y="40" width="110" height="30" as="geometry" />
        </mxCell>
        <mxCell id="zDHn615lWNcvlY-enJNe-7" value="2.0" style="rounded=0;whiteSpace=wrap;html=1;" vertex="1" parent="zDHn615lWNcvlY-enJNe-6">
          <mxGeometry x="40" width="70" height="30" as="geometry" />
        </mxCell>
        <mxCell id="zDHn615lWNcvlY-enJNe-8" value="m_y" style="text;html=1;strokeColor=none;fillColor=none;align=right;verticalAlign=middle;whiteSpace=wrap;rounded=0;" vertex="1" parent="zDHn615lWNcvlY-enJNe-6">
          <mxGeometry x="-22" y="5" width="60" height="20" as="geometry" />
        </mxCell>
        <mxCell id="zDHn615lWNcvlY-enJNe-41" value="0x...400" style="text;html=1;strokeColor=none;fillColor=none;align=right;verticalAlign=middle;whiteSpace=wrap;rounded=0;fontColor=#808080;fontStyle=2" vertex="1" parent="1">
          <mxGeometry x="670" y="460" width="60" height="20" as="geometry" />
        </mxCell>
        <mxCell id="zDHn615lWNcvlY-enJNe-43" value="" style="group" vertex="1" connectable="0" parent="1">
          <mxGeometry x="230" y="440" width="290" height="80" as="geometry" />
        </mxCell>
        <mxCell id="zDHn615lWNcvlY-enJNe-9" value="" style="rounded=0;whiteSpace=wrap;html=1;" vertex="1" parent="zDHn615lWNcvlY-enJNe-43">
          <mxGeometry x="60" width="230" height="80" as="geometry" />
        </mxCell>
        <mxCell id="zDHn615lWNcvlY-enJNe-10" value="c1" style="text;html=1;strokeColor=none;fillColor=none;align=right;verticalAlign=middle;whiteSpace=wrap;rounded=0;" vertex="1" parent="zDHn615lWNcvlY-enJNe-43">
          <mxGeometry width="60" height="20" as="geometry" />
        </mxCell>
        <mxCell id="zDHn615lWNcvlY-enJNe-11" value="0x...400" style="rounded=0;whiteSpace=wrap;html=1;" vertex="1" parent="zDHn615lWNcvlY-enJNe-43">
          <mxGeometry x="142" y="39" width="135" height="31" as="geometry" />
        </mxCell>
        <mxCell id="zDHn615lWNcvlY-enJNe-19" value="" style="group" vertex="1" connectable="0" parent="zDHn615lWNcvlY-enJNe-43">
          <mxGeometry x="102" y="9" width="175" height="30" as="geometry" />
        </mxCell>
        <mxCell id="zDHn615lWNcvlY-enJNe-20" value="5" style="rounded=0;whiteSpace=wrap;html=1;" vertex="1" parent="zDHn615lWNcvlY-enJNe-19">
          <mxGeometry x="40" width="135" height="30" as="geometry" />
        </mxCell>
        <mxCell id="zDHn615lWNcvlY-enJNe-21" value="m_radius" style="text;html=1;strokeColor=none;fillColor=none;align=right;verticalAlign=middle;whiteSpace=wrap;rounded=0;" vertex="1" parent="zDHn615lWNcvlY-enJNe-19">
          <mxGeometry x="-22" y="5" width="60" height="20" as="geometry" />
        </mxCell>
        <mxCell id="zDHn615lWNcvlY-enJNe-39" value="m_center" style="text;html=1;strokeColor=none;fillColor=none;align=right;verticalAlign=middle;whiteSpace=wrap;rounded=0;" vertex="1" parent="zDHn615lWNcvlY-enJNe-43">
          <mxGeometry x="82" y="45" width="60" height="20" as="geometry" />
        </mxCell>
        <mxCell id="zDHn615lWNcvlY-enJNe-44" value="" style="group" vertex="1" connectable="0" parent="1">
          <mxGeometry x="230" y="540" width="290" height="80" as="geometry" />
        </mxCell>
        <mxCell id="zDHn615lWNcvlY-enJNe-45" value="" style="rounded=0;whiteSpace=wrap;html=1;" vertex="1" parent="zDHn615lWNcvlY-enJNe-44">
          <mxGeometry x="60" width="230" height="80" as="geometry" />
        </mxCell>
        <mxCell id="zDHn615lWNcvlY-enJNe-46" value="c2" style="text;html=1;strokeColor=none;fillColor=none;align=right;verticalAlign=middle;whiteSpace=wrap;rounded=0;" vertex="1" parent="zDHn615lWNcvlY-enJNe-44">
          <mxGeometry width="60" height="20" as="geometry" />
        </mxCell>
        <mxCell id="zDHn615lWNcvlY-enJNe-47" value="0x...400" style="rounded=0;whiteSpace=wrap;html=1;" vertex="1" parent="zDHn615lWNcvlY-enJNe-44">
          <mxGeometry x="142" y="39" width="135" height="31" as="geometry" />
        </mxCell>
        <mxCell id="zDHn615lWNcvlY-enJNe-48" value="" style="group" vertex="1" connectable="0" parent="zDHn615lWNcvlY-enJNe-44">
          <mxGeometry x="102" y="9" width="175" height="30" as="geometry" />
        </mxCell>
        <mxCell id="zDHn615lWNcvlY-enJNe-49" value="3" style="rounded=0;whiteSpace=wrap;html=1;" vertex="1" parent="zDHn615lWNcvlY-enJNe-48">
          <mxGeometry x="40" width="135" height="30" as="geometry" />
        </mxCell>
        <mxCell id="zDHn615lWNcvlY-enJNe-50" value="m_radius" style="text;html=1;strokeColor=none;fillColor=none;align=right;verticalAlign=middle;whiteSpace=wrap;rounded=0;" vertex="1" parent="zDHn615lWNcvlY-enJNe-48">
          <mxGeometry x="-22" y="5" width="60" height="20" as="geometry" />
        </mxCell>
        <mxCell id="zDHn615lWNcvlY-enJNe-51" value="m_center" style="text;html=1;strokeColor=none;fillColor=none;align=right;verticalAlign=middle;whiteSpace=wrap;rounded=0;" vertex="1" parent="zDHn615lWNcvlY-enJNe-44">
          <mxGeometry x="82" y="45" width="60" height="20" as="geometry" />
        </mxCell>
        <mxCell id="zDHn615lWNcvlY-enJNe-53" value="" style="endArrow=classic;html=1;entryX=0;entryY=0.75;entryDx=0;entryDy=0;edgeStyle=orthogonalEdgeStyle;curved=1;exitX=1;exitY=0.5;exitDx=0;exitDy=0;" edge="1" parent="1" source="zDHn615lWNcvlY-enJNe-47" target="zDHn615lWNcvlY-enJNe-1">
          <mxGeometry width="50" height="50" relative="1" as="geometry">
            <mxPoint x="517" y="505" as="sourcePoint" />
            <mxPoint x="648" y="535" as="targetPoint" />
            <Array as="points">
              <mxPoint x="600" y="595" />
              <mxPoint x="600" y="540" />
            </Array>
          </mxGeometry>
        </mxCell>
        <mxCell id="wG7DCAoC63nYKxlg_UAw-1" value="" style="rounded=0;whiteSpace=wrap;html=1;" vertex="1" parent="1">
          <mxGeometry x="640" y="679" width="135" height="80" as="geometry" />
        </mxCell>
        <mxCell id="wG7DCAoC63nYKxlg_UAw-2" value="" style="group" vertex="1" connectable="0" parent="1">
          <mxGeometry x="645" y="689" width="110" height="30" as="geometry" />
        </mxCell>
        <mxCell id="wG7DCAoC63nYKxlg_UAw-3" value="3.2" style="rounded=0;whiteSpace=wrap;html=1;" vertex="1" parent="wG7DCAoC63nYKxlg_UAw-2">
          <mxGeometry x="40" width="70" height="30" as="geometry" />
        </mxCell>
        <mxCell id="wG7DCAoC63nYKxlg_UAw-4" value="m_x" style="text;html=1;strokeColor=none;fillColor=none;align=right;verticalAlign=middle;whiteSpace=wrap;rounded=0;" vertex="1" parent="wG7DCAoC63nYKxlg_UAw-2">
          <mxGeometry x="-22" y="5" width="60" height="20" as="geometry" />
        </mxCell>
        <mxCell id="wG7DCAoC63nYKxlg_UAw-5" value="p1" style="text;html=1;strokeColor=none;fillColor=none;align=right;verticalAlign=middle;whiteSpace=wrap;rounded=0;" vertex="1" parent="wG7DCAoC63nYKxlg_UAw-2">
          <mxGeometry x="-65" y="-10" width="60" height="20" as="geometry" />
        </mxCell>
        <mxCell id="wG7DCAoC63nYKxlg_UAw-6" value="" style="group" vertex="1" connectable="0" parent="1">
          <mxGeometry x="645" y="719" width="110" height="30" as="geometry" />
        </mxCell>
        <mxCell id="wG7DCAoC63nYKxlg_UAw-7" value="2.0" style="rounded=0;whiteSpace=wrap;html=1;" vertex="1" parent="wG7DCAoC63nYKxlg_UAw-6">
          <mxGeometry x="40" width="70" height="30" as="geometry" />
        </mxCell>
        <mxCell id="wG7DCAoC63nYKxlg_UAw-8" value="m_y" style="text;html=1;strokeColor=none;fillColor=none;align=right;verticalAlign=middle;whiteSpace=wrap;rounded=0;" vertex="1" parent="wG7DCAoC63nYKxlg_UAw-6">
          <mxGeometry x="-22" y="5" width="60" height="20" as="geometry" />
        </mxCell>
        <mxCell id="wG7DCAoC63nYKxlg_UAw-9" value="" style="rounded=0;whiteSpace=wrap;html=1;" vertex="1" parent="1">
          <mxGeometry x="290" y="680" width="230" height="136" as="geometry" />
        </mxCell>
        <mxCell id="wG7DCAoC63nYKxlg_UAw-10" value="c1" style="text;html=1;strokeColor=none;fillColor=none;align=right;verticalAlign=middle;whiteSpace=wrap;rounded=0;" vertex="1" parent="1">
          <mxGeometry x="230" y="680" width="60" height="20" as="geometry" />
        </mxCell>
        <mxCell id="wG7DCAoC63nYKxlg_UAw-11" value="" style="rounded=0;whiteSpace=wrap;html=1;" vertex="1" parent="1">
          <mxGeometry x="372" y="719" width="135" height="80" as="geometry" />
        </mxCell>
        <mxCell id="wG7DCAoC63nYKxlg_UAw-12" value="" style="group" vertex="1" connectable="0" parent="1">
          <mxGeometry x="377" y="729" width="110" height="30" as="geometry" />
        </mxCell>
        <mxCell id="wG7DCAoC63nYKxlg_UAw-13" value="3.2" style="rounded=0;whiteSpace=wrap;html=1;" vertex="1" parent="wG7DCAoC63nYKxlg_UAw-12">
          <mxGeometry x="40" width="70" height="30" as="geometry" />
        </mxCell>
        <mxCell id="wG7DCAoC63nYKxlg_UAw-14" value="m_x" style="text;html=1;strokeColor=none;fillColor=none;align=right;verticalAlign=middle;whiteSpace=wrap;rounded=0;" vertex="1" parent="wG7DCAoC63nYKxlg_UAw-12">
          <mxGeometry x="-22" y="5" width="60" height="20" as="geometry" />
        </mxCell>
        <mxCell id="wG7DCAoC63nYKxlg_UAw-15" value="m_center" style="text;html=1;strokeColor=none;fillColor=none;align=right;verticalAlign=middle;whiteSpace=wrap;rounded=0;" vertex="1" parent="wG7DCAoC63nYKxlg_UAw-12">
          <mxGeometry x="-65" y="-10" width="60" height="20" as="geometry" />
        </mxCell>
        <mxCell id="wG7DCAoC63nYKxlg_UAw-16" value="" style="group" vertex="1" connectable="0" parent="1">
          <mxGeometry x="377" y="759" width="110" height="30" as="geometry" />
        </mxCell>
        <mxCell id="wG7DCAoC63nYKxlg_UAw-17" value="2.0" style="rounded=0;whiteSpace=wrap;html=1;" vertex="1" parent="wG7DCAoC63nYKxlg_UAw-16">
          <mxGeometry x="40" width="70" height="30" as="geometry" />
        </mxCell>
        <mxCell id="wG7DCAoC63nYKxlg_UAw-18" value="m_y" style="text;html=1;strokeColor=none;fillColor=none;align=right;verticalAlign=middle;whiteSpace=wrap;rounded=0;" vertex="1" parent="wG7DCAoC63nYKxlg_UAw-16">
          <mxGeometry x="-22" y="5" width="60" height="20" as="geometry" />
        </mxCell>
        <mxCell id="wG7DCAoC63nYKxlg_UAw-19" value="" style="group" vertex="1" connectable="0" parent="1">
          <mxGeometry x="332" y="689" width="175" height="30" as="geometry" />
        </mxCell>
        <mxCell id="wG7DCAoC63nYKxlg_UAw-20" value="5" style="rounded=0;whiteSpace=wrap;html=1;" vertex="1" parent="wG7DCAoC63nYKxlg_UAw-19">
          <mxGeometry x="40" width="135" height="30" as="geometry" />
        </mxCell>
        <mxCell id="wG7DCAoC63nYKxlg_UAw-21" value="m_radius" style="text;html=1;strokeColor=none;fillColor=none;align=right;verticalAlign=middle;whiteSpace=wrap;rounded=0;" vertex="1" parent="wG7DCAoC63nYKxlg_UAw-19">
          <mxGeometry x="-22" y="5" width="60" height="20" as="geometry" />
        </mxCell>
        <mxCell id="wG7DCAoC63nYKxlg_UAw-22" value="" style="rounded=0;whiteSpace=wrap;html=1;" vertex="1" parent="1">
          <mxGeometry x="290" y="840" width="230" height="136" as="geometry" />
        </mxCell>
        <mxCell id="wG7DCAoC63nYKxlg_UAw-23" value="c1" style="text;html=1;strokeColor=none;fillColor=none;align=right;verticalAlign=middle;whiteSpace=wrap;rounded=0;" vertex="1" parent="1">
          <mxGeometry x="230" y="840" width="60" height="20" as="geometry" />
        </mxCell>
        <mxCell id="wG7DCAoC63nYKxlg_UAw-24" value="" style="rounded=0;whiteSpace=wrap;html=1;" vertex="1" parent="1">
          <mxGeometry x="372" y="879" width="135" height="80" as="geometry" />
        </mxCell>
        <mxCell id="wG7DCAoC63nYKxlg_UAw-25" value="" style="group" vertex="1" connectable="0" parent="1">
          <mxGeometry x="377" y="889" width="110" height="30" as="geometry" />
        </mxCell>
        <mxCell id="wG7DCAoC63nYKxlg_UAw-26" value="3.2" style="rounded=0;whiteSpace=wrap;html=1;" vertex="1" parent="wG7DCAoC63nYKxlg_UAw-25">
          <mxGeometry x="40" width="70" height="30" as="geometry" />
        </mxCell>
        <mxCell id="wG7DCAoC63nYKxlg_UAw-27" value="m_x" style="text;html=1;strokeColor=none;fillColor=none;align=right;verticalAlign=middle;whiteSpace=wrap;rounded=0;" vertex="1" parent="wG7DCAoC63nYKxlg_UAw-25">
          <mxGeometry x="-22" y="5" width="60" height="20" as="geometry" />
        </mxCell>
        <mxCell id="wG7DCAoC63nYKxlg_UAw-28" value="m_center" style="text;html=1;strokeColor=none;fillColor=none;align=right;verticalAlign=middle;whiteSpace=wrap;rounded=0;" vertex="1" parent="wG7DCAoC63nYKxlg_UAw-25">
          <mxGeometry x="-65" y="-10" width="60" height="20" as="geometry" />
        </mxCell>
        <mxCell id="wG7DCAoC63nYKxlg_UAw-29" value="" style="group" vertex="1" connectable="0" parent="1">
          <mxGeometry x="377" y="919" width="110" height="30" as="geometry" />
        </mxCell>
        <mxCell id="wG7DCAoC63nYKxlg_UAw-30" value="2.0" style="rounded=0;whiteSpace=wrap;html=1;" vertex="1" parent="wG7DCAoC63nYKxlg_UAw-29">
          <mxGeometry x="40" width="70" height="30" as="geometry" />
        </mxCell>
        <mxCell id="wG7DCAoC63nYKxlg_UAw-31" value="m_y" style="text;html=1;strokeColor=none;fillColor=none;align=right;verticalAlign=middle;whiteSpace=wrap;rounded=0;" vertex="1" parent="wG7DCAoC63nYKxlg_UAw-29">
          <mxGeometry x="-22" y="5" width="60" height="20" as="geometry" />
        </mxCell>
        <mxCell id="wG7DCAoC63nYKxlg_UAw-32" value="" style="group" vertex="1" connectable="0" parent="1">
          <mxGeometry x="332" y="849" width="175" height="30" as="geometry" />
        </mxCell>
        <mxCell id="wG7DCAoC63nYKxlg_UAw-33" value="3" style="rounded=0;whiteSpace=wrap;html=1;" vertex="1" parent="wG7DCAoC63nYKxlg_UAw-32">
          <mxGeometry x="40" width="135" height="30" as="geometry" />
        </mxCell>
        <mxCell id="wG7DCAoC63nYKxlg_UAw-34" value="m_radius" style="text;html=1;strokeColor=none;fillColor=none;align=right;verticalAlign=middle;whiteSpace=wrap;rounded=0;" vertex="1" parent="wG7DCAoC63nYKxlg_UAw-32">
          <mxGeometry x="-22" y="5" width="60" height="20" as="geometry" />
        </mxCell>
      </root>
    </mxGraphModel>
  </diagram>
  <diagram id="ceBV66l98_Rujc1KJl7y" name="Page-9">
    <mxGraphModel dx="689" dy="407" grid="1" gridSize="10" guides="1" tooltips="1" connect="1" arrows="1" fold="1" page="1" pageScale="1" pageWidth="850" pageHeight="1100" math="0" shadow="0">
      <root>
        <mxCell id="0" />
        <mxCell id="1" parent="0" />
        <mxCell id="AogEhr74E0dE8Po1ioPK-1" value="" style="rounded=0;whiteSpace=wrap;html=1;" vertex="1" parent="1">
          <mxGeometry x="260" y="180" width="230" height="210" as="geometry" />
        </mxCell>
        <mxCell id="AogEhr74E0dE8Po1ioPK-2" value="&lt;i&gt;main stack frame&lt;/i&gt;" style="text;html=1;strokeColor=none;fillColor=none;align=left;verticalAlign=middle;whiteSpace=wrap;rounded=0;" vertex="1" parent="1">
          <mxGeometry x="260" y="180" width="190" height="20" as="geometry" />
        </mxCell>
        <mxCell id="AogEhr74E0dE8Po1ioPK-3" value="" style="group" vertex="1" connectable="0" parent="1">
          <mxGeometry x="300" y="200" width="170" height="80" as="geometry" />
        </mxCell>
        <mxCell id="AogEhr74E0dE8Po1ioPK-4" value="" style="rounded=0;whiteSpace=wrap;html=1;fillColor=#dae8fc;strokeColor=#6c8ebf;" vertex="1" parent="AogEhr74E0dE8Po1ioPK-3">
          <mxGeometry width="170" height="80" as="geometry" />
        </mxCell>
        <mxCell id="AogEhr74E0dE8Po1ioPK-11" value="anna" style="text;html=1;strokeColor=none;fillColor=none;align=center;verticalAlign=middle;whiteSpace=wrap;rounded=0;fontColor=#000000;" vertex="1" parent="1">
          <mxGeometry x="260" y="200" width="40" height="20" as="geometry" />
        </mxCell>
        <mxCell id="AogEhr74E0dE8Po1ioPK-12" value="&lt;span style=&quot;font-family: &amp;quot;trebuchet ms&amp;quot;, verdana, arial, sans-serif;&quot;&gt;0x...400&lt;/span&gt;" style="rounded=0;whiteSpace=wrap;html=1;fillColor=none;strokeColor=none;fontStyle=2;fontColor=#007FFF;align=right;fontSize=12;" vertex="1" parent="1">
          <mxGeometry x="130" y="200" width="120" height="20" as="geometry" />
        </mxCell>
        <mxCell id="AogEhr74E0dE8Po1ioPK-13" value="Address" style="text;html=1;strokeColor=none;fillColor=none;align=right;verticalAlign=middle;whiteSpace=wrap;rounded=0;fontColor=#000000;" vertex="1" parent="1">
          <mxGeometry x="130" y="160" width="120" height="20" as="geometry" />
        </mxCell>
        <mxCell id="AogEhr74E0dE8Po1ioPK-14" value="" style="rounded=0;whiteSpace=wrap;html=1;" vertex="1" parent="1">
          <mxGeometry x="260" y="388" width="230" height="112" as="geometry" />
        </mxCell>
        <mxCell id="AogEhr74E0dE8Po1ioPK-15" value="&lt;i&gt;marry() stack frame&lt;/i&gt;" style="text;html=1;strokeColor=none;fillColor=none;align=left;verticalAlign=middle;whiteSpace=wrap;rounded=0;" vertex="1" parent="1">
          <mxGeometry x="260" y="388" width="190" height="20" as="geometry" />
        </mxCell>
        <mxCell id="AogEhr74E0dE8Po1ioPK-16" value="" style="group" vertex="1" connectable="0" parent="1">
          <mxGeometry x="310" y="420" width="110" height="30" as="geometry" />
        </mxCell>
        <mxCell id="AogEhr74E0dE8Po1ioPK-17" value="this" style="text;html=1;strokeColor=none;fillColor=none;align=right;verticalAlign=middle;whiteSpace=wrap;rounded=0;" vertex="1" parent="AogEhr74E0dE8Po1ioPK-16">
          <mxGeometry x="-22" y="5" width="60" height="20" as="geometry" />
        </mxCell>
        <mxCell id="AogEhr74E0dE8Po1ioPK-18" value="" style="group;fillColor=#d5e8d4;strokeColor=#82b366;fillStyle=auto;container=0;" vertex="1" connectable="0" parent="1">
          <mxGeometry x="300" y="280" width="170" height="80" as="geometry" />
        </mxCell>
        <mxCell id="AogEhr74E0dE8Po1ioPK-26" value="brian" style="text;html=1;strokeColor=none;fillColor=none;align=center;verticalAlign=middle;whiteSpace=wrap;rounded=0;fontColor=#000000;" vertex="1" parent="1">
          <mxGeometry x="260" y="280" width="40" height="20" as="geometry" />
        </mxCell>
        <mxCell id="AogEhr74E0dE8Po1ioPK-27" value="&lt;span style=&quot;font-family: &amp;quot;trebuchet ms&amp;quot;, verdana, arial, sans-serif;&quot;&gt;0x...6f0&lt;/span&gt;" style="rounded=0;whiteSpace=wrap;html=1;fillColor=none;strokeColor=none;fontStyle=2;fontColor=#009900;align=right;fontSize=12;" vertex="1" parent="1">
          <mxGeometry x="130" y="280" width="120" height="20" as="geometry" />
        </mxCell>
        <mxCell id="AogEhr74E0dE8Po1ioPK-28" value="" style="group;fontColor=default;fontStyle=2" vertex="1" connectable="0" parent="1">
          <mxGeometry x="310" y="450" width="110" height="30" as="geometry" />
        </mxCell>
        <mxCell id="AogEhr74E0dE8Po1ioPK-29" value="&lt;span style=&quot;color: rgb(0, 127, 255); font-family: &amp;quot;trebuchet ms&amp;quot;, verdana, arial, sans-serif; font-style: italic; text-align: right;&quot;&gt;0x...400&lt;/span&gt;" style="rounded=0;whiteSpace=wrap;html=1;fontSize=12;" vertex="1" parent="AogEhr74E0dE8Po1ioPK-28">
          <mxGeometry x="40" y="-30" width="70" height="30" as="geometry" />
        </mxCell>
        <mxCell id="AogEhr74E0dE8Po1ioPK-30" value="" style="endArrow=classic;html=1;edgeStyle=orthogonalEdgeStyle;curved=1;exitX=1;exitY=0.5;exitDx=0;exitDy=0;entryX=0.992;entryY=0.438;entryDx=0;entryDy=0;entryPerimeter=0;" edge="1" parent="1" target="AogEhr74E0dE8Po1ioPK-4">
          <mxGeometry width="50" height="50" relative="1" as="geometry">
            <mxPoint x="420" y="435" as="sourcePoint" />
            <mxPoint x="435" y="235" as="targetPoint" />
            <Array as="points">
              <mxPoint x="530" y="435" />
              <mxPoint x="530" y="235" />
            </Array>
          </mxGeometry>
        </mxCell>
        <mxCell id="AogEhr74E0dE8Po1ioPK-31" value="" style="group" vertex="1" connectable="0" parent="1">
          <mxGeometry x="310" y="450" width="110" height="30" as="geometry" />
        </mxCell>
        <mxCell id="AogEhr74E0dE8Po1ioPK-32" value="spouse" style="text;html=1;strokeColor=none;fillColor=none;align=right;verticalAlign=middle;whiteSpace=wrap;rounded=0;" vertex="1" parent="AogEhr74E0dE8Po1ioPK-31">
          <mxGeometry x="-22" y="5" width="60" height="20" as="geometry" />
        </mxCell>
        <mxCell id="AogEhr74E0dE8Po1ioPK-33" value="" style="group;fontColor=default;fontStyle=2" vertex="1" connectable="0" parent="1">
          <mxGeometry x="310" y="480" width="110" height="30" as="geometry" />
        </mxCell>
        <mxCell id="AogEhr74E0dE8Po1ioPK-34" value="&lt;span style=&quot;font-family: &amp;quot;trebuchet ms&amp;quot;, verdana, arial, sans-serif; font-style: italic; text-align: right;&quot;&gt;&lt;font style=&quot;color: rgb(0, 153, 0);&quot;&gt;0x...6f0&lt;/font&gt;&lt;/span&gt;" style="rounded=0;whiteSpace=wrap;html=1;fontSize=12;" vertex="1" parent="AogEhr74E0dE8Po1ioPK-33">
          <mxGeometry x="40" y="-30" width="70" height="30" as="geometry" />
        </mxCell>
        <mxCell id="AogEhr74E0dE8Po1ioPK-19" value="" style="rounded=0;whiteSpace=wrap;html=1;fontStyle=4;movable=0;resizable=0;rotatable=0;deletable=0;editable=0;locked=1;connectable=0;" vertex="1" parent="1">
          <mxGeometry x="300" y="280" width="170" height="80" as="geometry" />
        </mxCell>
        <mxCell id="AogEhr74E0dE8Po1ioPK-5" value="" style="group" vertex="1" connectable="0" parent="1">
          <mxGeometry x="315.7362962962963" y="210" width="138.51851851851853" height="30" as="geometry" />
        </mxCell>
        <mxCell id="AogEhr74E0dE8Po1ioPK-6" value="Anna" style="rounded=0;whiteSpace=wrap;html=1;" vertex="1" parent="AogEhr74E0dE8Po1ioPK-5">
          <mxGeometry x="50.370370370370374" width="88.14814814814815" height="30" as="geometry" />
        </mxCell>
        <mxCell id="AogEhr74E0dE8Po1ioPK-7" value="m_name" style="text;html=1;strokeColor=none;fillColor=none;align=right;verticalAlign=middle;whiteSpace=wrap;rounded=0;" vertex="1" parent="AogEhr74E0dE8Po1ioPK-5">
          <mxGeometry x="-27.703703703703706" y="5" width="75.55555555555556" height="20" as="geometry" />
        </mxCell>
        <mxCell id="AogEhr74E0dE8Po1ioPK-8" value="" style="group" vertex="1" connectable="0" parent="1">
          <mxGeometry x="315.7362962962963" y="240" width="138.51851851851853" height="30" as="geometry" />
        </mxCell>
        <mxCell id="AogEhr74E0dE8Po1ioPK-9" value="0" style="rounded=0;whiteSpace=wrap;html=1;" vertex="1" parent="AogEhr74E0dE8Po1ioPK-8">
          <mxGeometry x="50.370370370370374" width="88.14814814814815" height="30" as="geometry" />
        </mxCell>
        <mxCell id="AogEhr74E0dE8Po1ioPK-10" value="m_spouse" style="text;html=1;strokeColor=none;fillColor=none;align=right;verticalAlign=middle;whiteSpace=wrap;rounded=0;" vertex="1" parent="AogEhr74E0dE8Po1ioPK-8">
          <mxGeometry x="-27.703703703703706" y="5" width="75.55555555555556" height="20" as="geometry" />
        </mxCell>
        <mxCell id="AogEhr74E0dE8Po1ioPK-23" value="" style="group" vertex="1" connectable="0" parent="1">
          <mxGeometry x="315.73629629629636" y="320" width="154.2637037037037" height="40" as="geometry" />
        </mxCell>
        <mxCell id="AogEhr74E0dE8Po1ioPK-35" value="" style="group" vertex="1" connectable="0" parent="AogEhr74E0dE8Po1ioPK-23">
          <mxGeometry x="-15.736296296296302" y="-40" width="170" height="80" as="geometry" />
        </mxCell>
        <mxCell id="AogEhr74E0dE8Po1ioPK-36" value="" style="rounded=0;whiteSpace=wrap;html=1;fillColor=#d5e8d4;strokeColor=#82b366;" vertex="1" parent="AogEhr74E0dE8Po1ioPK-35">
          <mxGeometry width="170" height="80" as="geometry" />
        </mxCell>
        <mxCell id="AogEhr74E0dE8Po1ioPK-38" value="" style="group" vertex="1" connectable="0" parent="AogEhr74E0dE8Po1ioPK-35">
          <mxGeometry x="15.73629629629636" y="10" width="138.51851851851853" height="30" as="geometry" />
        </mxCell>
        <mxCell id="AogEhr74E0dE8Po1ioPK-39" value="Brian" style="rounded=0;whiteSpace=wrap;html=1;" vertex="1" parent="AogEhr74E0dE8Po1ioPK-38">
          <mxGeometry x="50.370370370370374" width="88.14814814814815" height="30" as="geometry" />
        </mxCell>
        <mxCell id="AogEhr74E0dE8Po1ioPK-40" value="m_name" style="text;html=1;strokeColor=none;fillColor=none;align=right;verticalAlign=middle;whiteSpace=wrap;rounded=0;" vertex="1" parent="AogEhr74E0dE8Po1ioPK-38">
          <mxGeometry x="-27.703703703703706" y="5" width="75.55555555555556" height="20" as="geometry" />
        </mxCell>
        <mxCell id="AogEhr74E0dE8Po1ioPK-24" value="0" style="rounded=0;whiteSpace=wrap;html=1;" vertex="1" parent="AogEhr74E0dE8Po1ioPK-23">
          <mxGeometry x="50.370370370370374" width="88.14814814814815" height="30" as="geometry" />
        </mxCell>
        <mxCell id="AogEhr74E0dE8Po1ioPK-25" value="m_spouse" style="text;html=1;strokeColor=none;fillColor=none;align=right;verticalAlign=middle;whiteSpace=wrap;rounded=0;" vertex="1" parent="AogEhr74E0dE8Po1ioPK-23">
          <mxGeometry x="-27.703703703703706" y="5" width="75.55555555555556" height="20" as="geometry" />
        </mxCell>
        <mxCell id="AogEhr74E0dE8Po1ioPK-37" value="" style="endArrow=classic;html=1;edgeStyle=orthogonalEdgeStyle;curved=1;exitX=1;exitY=0.5;exitDx=0;exitDy=0;entryX=0.992;entryY=0.438;entryDx=0;entryDy=0;entryPerimeter=0;" edge="1" parent="1" target="AogEhr74E0dE8Po1ioPK-36" source="AogEhr74E0dE8Po1ioPK-34">
          <mxGeometry width="50" height="50" relative="1" as="geometry">
            <mxPoint x="420.00000000000006" y="515" as="sourcePoint" />
            <mxPoint x="435.00000000000006" y="315" as="targetPoint" />
            <Array as="points">
              <mxPoint x="520" y="465" />
              <mxPoint x="520" y="315" />
            </Array>
          </mxGeometry>
        </mxCell>
        <mxCell id="AogEhr74E0dE8Po1ioPK-42" value="" style="rounded=0;whiteSpace=wrap;html=1;" vertex="1" parent="1">
          <mxGeometry x="250" y="590" width="230" height="210" as="geometry" />
        </mxCell>
        <mxCell id="AogEhr74E0dE8Po1ioPK-43" value="&lt;i&gt;main stack frame&lt;/i&gt;" style="text;html=1;strokeColor=none;fillColor=none;align=left;verticalAlign=middle;whiteSpace=wrap;rounded=0;" vertex="1" parent="1">
          <mxGeometry x="250" y="590" width="190" height="20" as="geometry" />
        </mxCell>
        <mxCell id="AogEhr74E0dE8Po1ioPK-44" value="" style="group" vertex="1" connectable="0" parent="1">
          <mxGeometry x="290" y="610" width="170" height="80" as="geometry" />
        </mxCell>
        <mxCell id="AogEhr74E0dE8Po1ioPK-45" value="" style="rounded=0;whiteSpace=wrap;html=1;fillColor=#dae8fc;strokeColor=#6c8ebf;" vertex="1" parent="AogEhr74E0dE8Po1ioPK-44">
          <mxGeometry width="170" height="80" as="geometry" />
        </mxCell>
        <mxCell id="AogEhr74E0dE8Po1ioPK-46" value="anna" style="text;html=1;strokeColor=none;fillColor=none;align=center;verticalAlign=middle;whiteSpace=wrap;rounded=0;fontColor=#000000;" vertex="1" parent="1">
          <mxGeometry x="250" y="610" width="40" height="20" as="geometry" />
        </mxCell>
        <mxCell id="AogEhr74E0dE8Po1ioPK-47" value="&lt;span style=&quot;font-family: &amp;quot;trebuchet ms&amp;quot;, verdana, arial, sans-serif;&quot;&gt;0x...400&lt;/span&gt;" style="rounded=0;whiteSpace=wrap;html=1;fillColor=none;strokeColor=none;fontStyle=2;fontColor=#007FFF;align=right;fontSize=12;" vertex="1" parent="1">
          <mxGeometry x="120" y="610" width="120" height="20" as="geometry" />
        </mxCell>
        <mxCell id="AogEhr74E0dE8Po1ioPK-48" value="Address" style="text;html=1;strokeColor=none;fillColor=none;align=right;verticalAlign=middle;whiteSpace=wrap;rounded=0;fontColor=#000000;" vertex="1" parent="1">
          <mxGeometry x="120" y="570" width="120" height="20" as="geometry" />
        </mxCell>
        <mxCell id="AogEhr74E0dE8Po1ioPK-49" value="" style="rounded=0;whiteSpace=wrap;html=1;" vertex="1" parent="1">
          <mxGeometry x="250" y="798" width="230" height="112" as="geometry" />
        </mxCell>
        <mxCell id="AogEhr74E0dE8Po1ioPK-50" value="&lt;i&gt;marry() stack frame&lt;/i&gt;" style="text;html=1;strokeColor=none;fillColor=none;align=left;verticalAlign=middle;whiteSpace=wrap;rounded=0;" vertex="1" parent="1">
          <mxGeometry x="250" y="798" width="190" height="20" as="geometry" />
        </mxCell>
        <mxCell id="AogEhr74E0dE8Po1ioPK-51" value="" style="group" vertex="1" connectable="0" parent="1">
          <mxGeometry x="300" y="830" width="110" height="30" as="geometry" />
        </mxCell>
        <mxCell id="AogEhr74E0dE8Po1ioPK-52" value="this" style="text;html=1;strokeColor=none;fillColor=none;align=right;verticalAlign=middle;whiteSpace=wrap;rounded=0;" vertex="1" parent="AogEhr74E0dE8Po1ioPK-51">
          <mxGeometry x="-22" y="5" width="60" height="20" as="geometry" />
        </mxCell>
        <mxCell id="AogEhr74E0dE8Po1ioPK-53" value="" style="group;fillColor=#d5e8d4;strokeColor=#82b366;fillStyle=auto;container=0;" vertex="1" connectable="0" parent="1">
          <mxGeometry x="290" y="690" width="170" height="80" as="geometry" />
        </mxCell>
        <mxCell id="AogEhr74E0dE8Po1ioPK-54" value="brian" style="text;html=1;strokeColor=none;fillColor=none;align=center;verticalAlign=middle;whiteSpace=wrap;rounded=0;fontColor=#000000;" vertex="1" parent="1">
          <mxGeometry x="250" y="690" width="40" height="20" as="geometry" />
        </mxCell>
        <mxCell id="AogEhr74E0dE8Po1ioPK-55" value="&lt;span style=&quot;font-family: &amp;quot;trebuchet ms&amp;quot;, verdana, arial, sans-serif;&quot;&gt;0x...6f0&lt;/span&gt;" style="rounded=0;whiteSpace=wrap;html=1;fillColor=none;strokeColor=none;fontStyle=2;fontColor=#009900;align=right;fontSize=12;" vertex="1" parent="1">
          <mxGeometry x="120" y="690" width="120" height="20" as="geometry" />
        </mxCell>
        <mxCell id="AogEhr74E0dE8Po1ioPK-56" value="" style="group;fontColor=default;fontStyle=2" vertex="1" connectable="0" parent="1">
          <mxGeometry x="300" y="860" width="110" height="30" as="geometry" />
        </mxCell>
        <mxCell id="AogEhr74E0dE8Po1ioPK-57" value="&lt;span style=&quot;color: rgb(0, 127, 255); font-family: &amp;quot;trebuchet ms&amp;quot;, verdana, arial, sans-serif; font-style: italic; text-align: right;&quot;&gt;0x...400&lt;/span&gt;" style="rounded=0;whiteSpace=wrap;html=1;fontSize=12;" vertex="1" parent="AogEhr74E0dE8Po1ioPK-56">
          <mxGeometry x="40" y="-30" width="70" height="30" as="geometry" />
        </mxCell>
        <mxCell id="AogEhr74E0dE8Po1ioPK-58" value="" style="endArrow=classic;html=1;edgeStyle=orthogonalEdgeStyle;curved=1;exitX=1;exitY=0.5;exitDx=0;exitDy=0;entryX=0.992;entryY=0.438;entryDx=0;entryDy=0;entryPerimeter=0;" edge="1" parent="1" target="AogEhr74E0dE8Po1ioPK-45">
          <mxGeometry width="50" height="50" relative="1" as="geometry">
            <mxPoint x="410" y="845" as="sourcePoint" />
            <mxPoint x="425" y="645" as="targetPoint" />
            <Array as="points">
              <mxPoint x="520" y="845" />
              <mxPoint x="520" y="645" />
            </Array>
          </mxGeometry>
        </mxCell>
        <mxCell id="AogEhr74E0dE8Po1ioPK-59" value="" style="group" vertex="1" connectable="0" parent="1">
          <mxGeometry x="300" y="860" width="110" height="30" as="geometry" />
        </mxCell>
        <mxCell id="AogEhr74E0dE8Po1ioPK-60" value="spouse" style="text;html=1;strokeColor=none;fillColor=none;align=right;verticalAlign=middle;whiteSpace=wrap;rounded=0;" vertex="1" parent="AogEhr74E0dE8Po1ioPK-59">
          <mxGeometry x="-22" y="5" width="60" height="20" as="geometry" />
        </mxCell>
        <mxCell id="AogEhr74E0dE8Po1ioPK-61" value="" style="group;fontColor=default;fontStyle=2" vertex="1" connectable="0" parent="1">
          <mxGeometry x="300" y="890" width="110" height="30" as="geometry" />
        </mxCell>
        <mxCell id="AogEhr74E0dE8Po1ioPK-62" value="&lt;span style=&quot;font-family: &amp;quot;trebuchet ms&amp;quot;, verdana, arial, sans-serif; font-style: italic; text-align: right;&quot;&gt;&lt;font style=&quot;color: rgb(0, 153, 0);&quot;&gt;0x...6f0&lt;/font&gt;&lt;/span&gt;" style="rounded=0;whiteSpace=wrap;html=1;fontSize=12;" vertex="1" parent="AogEhr74E0dE8Po1ioPK-61">
          <mxGeometry x="40" y="-30" width="70" height="30" as="geometry" />
        </mxCell>
        <mxCell id="AogEhr74E0dE8Po1ioPK-64" value="" style="group" vertex="1" connectable="0" parent="1">
          <mxGeometry x="305.7362962962963" y="620" width="138.51851851851853" height="30" as="geometry" />
        </mxCell>
        <mxCell id="AogEhr74E0dE8Po1ioPK-65" value="Anna" style="rounded=0;whiteSpace=wrap;html=1;" vertex="1" parent="AogEhr74E0dE8Po1ioPK-64">
          <mxGeometry x="50.370370370370374" width="88.14814814814815" height="30" as="geometry" />
        </mxCell>
        <mxCell id="AogEhr74E0dE8Po1ioPK-66" value="m_name" style="text;html=1;strokeColor=none;fillColor=none;align=right;verticalAlign=middle;whiteSpace=wrap;rounded=0;" vertex="1" parent="AogEhr74E0dE8Po1ioPK-64">
          <mxGeometry x="-27.703703703703706" y="5" width="75.55555555555556" height="20" as="geometry" />
        </mxCell>
        <mxCell id="AogEhr74E0dE8Po1ioPK-67" value="" style="group" vertex="1" connectable="0" parent="1">
          <mxGeometry x="305.7362962962963" y="650" width="138.51851851851853" height="30" as="geometry" />
        </mxCell>
        <mxCell id="AogEhr74E0dE8Po1ioPK-68" value="&lt;span style=&quot;color: rgb(0, 153, 0); font-family: &amp;quot;trebuchet ms&amp;quot;, verdana, arial, sans-serif; font-style: italic; text-align: right;&quot;&gt;0x...6f0&lt;/span&gt;" style="rounded=0;whiteSpace=wrap;html=1;" vertex="1" parent="AogEhr74E0dE8Po1ioPK-67">
          <mxGeometry x="50.370370370370374" width="88.14814814814815" height="30" as="geometry" />
        </mxCell>
        <mxCell id="AogEhr74E0dE8Po1ioPK-69" value="m_spouse" style="text;html=1;strokeColor=none;fillColor=none;align=right;verticalAlign=middle;whiteSpace=wrap;rounded=0;" vertex="1" parent="AogEhr74E0dE8Po1ioPK-67">
          <mxGeometry x="-27.703703703703706" y="5" width="75.55555555555556" height="20" as="geometry" />
        </mxCell>
        <mxCell id="AogEhr74E0dE8Po1ioPK-70" value="" style="group" vertex="1" connectable="0" parent="1">
          <mxGeometry x="305.73629629629636" y="730" width="154.2637037037037" height="40" as="geometry" />
        </mxCell>
        <mxCell id="AogEhr74E0dE8Po1ioPK-71" value="" style="group" vertex="1" connectable="0" parent="AogEhr74E0dE8Po1ioPK-70">
          <mxGeometry x="-15.736296296296302" y="-40" width="170" height="80" as="geometry" />
        </mxCell>
        <mxCell id="AogEhr74E0dE8Po1ioPK-72" value="" style="rounded=0;whiteSpace=wrap;html=1;fillColor=#d5e8d4;strokeColor=#82b366;" vertex="1" parent="AogEhr74E0dE8Po1ioPK-71">
          <mxGeometry width="170" height="80" as="geometry" />
        </mxCell>
        <mxCell id="AogEhr74E0dE8Po1ioPK-73" value="" style="group" vertex="1" connectable="0" parent="AogEhr74E0dE8Po1ioPK-71">
          <mxGeometry x="15.73629629629636" y="10" width="138.51851851851853" height="30" as="geometry" />
        </mxCell>
        <mxCell id="AogEhr74E0dE8Po1ioPK-74" value="Brian" style="rounded=0;whiteSpace=wrap;html=1;" vertex="1" parent="AogEhr74E0dE8Po1ioPK-73">
          <mxGeometry x="50.370370370370374" width="88.14814814814815" height="30" as="geometry" />
        </mxCell>
        <mxCell id="AogEhr74E0dE8Po1ioPK-75" value="m_name" style="text;html=1;strokeColor=none;fillColor=none;align=right;verticalAlign=middle;whiteSpace=wrap;rounded=0;" vertex="1" parent="AogEhr74E0dE8Po1ioPK-73">
          <mxGeometry x="-27.703703703703706" y="5" width="75.55555555555556" height="20" as="geometry" />
        </mxCell>
        <mxCell id="AogEhr74E0dE8Po1ioPK-76" value="&lt;span style=&quot;color: rgb(0, 127, 255); font-family: &amp;quot;trebuchet ms&amp;quot;, verdana, arial, sans-serif; font-style: italic; text-align: right;&quot;&gt;0x...400&lt;/span&gt;" style="rounded=0;whiteSpace=wrap;html=1;" vertex="1" parent="AogEhr74E0dE8Po1ioPK-70">
          <mxGeometry x="50.370370370370374" width="88.14814814814815" height="30" as="geometry" />
        </mxCell>
        <mxCell id="AogEhr74E0dE8Po1ioPK-77" value="m_spouse" style="text;html=1;strokeColor=none;fillColor=none;align=right;verticalAlign=middle;whiteSpace=wrap;rounded=0;" vertex="1" parent="AogEhr74E0dE8Po1ioPK-70">
          <mxGeometry x="-27.703703703703706" y="5" width="75.55555555555556" height="20" as="geometry" />
        </mxCell>
        <mxCell id="AogEhr74E0dE8Po1ioPK-78" value="" style="endArrow=classic;html=1;edgeStyle=orthogonalEdgeStyle;curved=1;exitX=1;exitY=0.5;exitDx=0;exitDy=0;entryX=0.992;entryY=0.438;entryDx=0;entryDy=0;entryPerimeter=0;" edge="1" parent="1" source="AogEhr74E0dE8Po1ioPK-62" target="AogEhr74E0dE8Po1ioPK-72">
          <mxGeometry width="50" height="50" relative="1" as="geometry">
            <mxPoint x="410.00000000000006" y="925" as="sourcePoint" />
            <mxPoint x="425.00000000000006" y="725" as="targetPoint" />
            <Array as="points">
              <mxPoint x="510" y="875" />
              <mxPoint x="510" y="725" />
            </Array>
          </mxGeometry>
        </mxCell>
        <mxCell id="AogEhr74E0dE8Po1ioPK-79" value="" style="endArrow=classic;html=1;edgeStyle=orthogonalEdgeStyle;curved=1;exitX=1;exitY=0.5;exitDx=0;exitDy=0;entryX=0.992;entryY=0.164;entryDx=0;entryDy=0;entryPerimeter=0;fillColor=#d5e8d4;strokeColor=#82b366;" edge="1" parent="1">
          <mxGeometry width="50" height="50" relative="1" as="geometry">
            <mxPoint x="444.25481481481484" y="670" as="sourcePoint" />
            <mxPoint x="458.6400000000001" y="708.1200000000001" as="targetPoint" />
            <Array as="points">
              <mxPoint x="540" y="670" />
              <mxPoint x="540" y="708" />
            </Array>
          </mxGeometry>
        </mxCell>
        <mxCell id="AogEhr74E0dE8Po1ioPK-80" value="" style="endArrow=classic;html=1;edgeStyle=orthogonalEdgeStyle;curved=1;exitX=1;exitY=0.5;exitDx=0;exitDy=0;fillColor=#dae8fc;strokeColor=#6c8ebf;" edge="1" parent="1" source="AogEhr74E0dE8Po1ioPK-76">
          <mxGeometry width="50" height="50" relative="1" as="geometry">
            <mxPoint x="454" y="675" as="sourcePoint" />
            <mxPoint x="460" y="620" as="targetPoint" />
            <Array as="points">
              <mxPoint x="550" y="745" />
              <mxPoint x="550" y="620" />
            </Array>
          </mxGeometry>
        </mxCell>
      </root>
    </mxGraphModel>
  </diagram>
</mxfile>
